<svg id="svg" xmlns="http://www.w3.org/2000/svg" xmlns:xlink="http://www.w3.org/1999/xlink" width="400" height="384.99353169469595" viewBox="0, 0, 400,384.99353169469595"><g id="svgg"><path id="path0" d="M15.800 0.391 C 15.286 0.729,15.286 0.813,15.800 1.150 C 16.155 1.383,16.199 1.532,15.915 1.536 C 15.661 1.539,15.276 1.238,15.060 0.867 C 14.687 0.227,14.666 0.228,14.655 0.877 C 14.648 1.329,14.240 1.641,13.454 1.799 C 12.800 1.929,12.175 2.272,12.064 2.560 C 11.954 2.847,11.699 3.083,11.497 3.083 C 11.295 3.083,11.252 2.866,11.402 2.601 C 11.552 2.336,11.295 2.510,10.832 2.987 C 10.368 3.463,9.823 3.854,9.619 3.854 C 9.415 3.854,9.249 4.114,9.249 4.432 C 9.249 4.750,9.032 5.013,8.767 5.016 C 8.061 5.026,6.450 6.847,6.737 7.311 C 6.872 7.529,6.831 7.707,6.647 7.707 C 6.464 7.707,5.976 7.980,5.565 8.314 C 5.154 8.647,5.034 8.811,5.299 8.676 C 5.564 8.542,5.780 8.616,5.780 8.840 C 5.780 9.208,5.491 9.314,4.755 9.214 C 4.326 9.156,3.796 10.386,4.064 10.819 C 4.203 11.044,3.962 11.320,3.529 11.433 C 3.053 11.558,2.644 12.082,2.495 12.760 C 2.360 13.376,2.000 14.130,1.696 14.434 C -0.031 16.160,-0.014 14.731,0.092 152.393 C 0.181 267.204,0.259 282.151,0.771 282.474 C 1.089 282.675,1.150 282.842,0.908 282.846 C 0.226 282.855,1.132 285.991,2.051 286.802 C 2.471 287.172,2.619 287.476,2.379 287.476 C 1.880 287.476,2.593 289.398,3.268 289.870 C 3.484 290.022,3.676 290.282,3.695 290.448 C 3.780 291.203,4.580 292.624,4.624 292.100 C 4.654 291.748,4.809 291.860,5.022 292.389 C 5.213 292.866,5.646 293.256,5.983 293.256 C 6.321 293.256,6.494 293.423,6.368 293.626 C 6.065 294.116,6.991 295.568,7.607 295.568 C 7.874 295.568,8.092 295.742,8.092 295.954 C 8.092 296.166,8.353 296.339,8.671 296.339 C 8.988 296.339,9.249 296.494,9.249 296.684 C 9.249 297.148,11.035 298.844,11.524 298.844 C 11.738 298.844,12.193 299.191,12.536 299.615 C 12.879 300.039,13.049 300.169,12.915 299.904 C 12.519 299.120,13.074 299.352,14.007 300.359 C 14.915 301.338,16.659 301.960,18.882 302.096 C 19.356 302.125,19.366 302.191,18.936 302.464 C 18.567 302.697,18.853 302.882,19.899 303.086 C 22.335 303.562,158.382 303.755,158.949 303.284 C 159.300 302.993,159.584 303.064,159.968 303.537 C 160.325 303.978,160.342 304.099,160.019 303.905 C 159.665 303.692,159.538 304.031,159.538 305.180 C 159.538 306.040,159.711 306.744,159.923 306.744 C 160.141 306.744,160.308 307.843,160.308 309.271 C 160.308 310.974,160.173 311.715,159.895 311.543 C 159.608 311.366,159.519 312.356,159.606 314.760 C 159.674 316.671,159.600 318.152,159.441 318.053 C 159.282 317.955,159.148 318.534,159.143 319.341 C 159.128 321.653,158.694 325.029,158.385 325.241 C 158.230 325.347,157.909 326.548,157.671 327.911 C 157.434 329.274,157.088 330.488,156.903 330.609 C 156.718 330.730,156.351 331.739,156.087 332.852 C 155.823 333.964,155.440 334.875,155.236 334.875 C 155.032 334.875,154.905 335.178,154.954 335.549 C 155.057 336.324,154.165 338.343,153.720 338.343 C 153.556 338.343,153.202 338.950,152.934 339.692 C 152.666 340.434,152.296 341.040,152.112 341.040 C 151.929 341.040,151.889 341.387,152.023 341.811 C 152.194 342.348,152.092 342.582,151.689 342.582 C 151.345 342.582,151.062 343.010,150.989 343.638 C 150.908 344.337,150.606 344.741,150.096 344.832 C 149.672 344.907,149.152 345.151,148.940 345.373 C 148.680 345.646,148.698 345.698,148.996 345.531 C 149.239 345.395,149.534 345.534,149.651 345.840 C 149.782 346.182,149.679 346.325,149.383 346.211 C 148.763 345.973,145.665 348.821,145.665 349.629 C 145.665 350.392,145.014 350.843,144.808 350.223 C 144.717 349.951,144.451 349.894,144.147 350.081 C 143.742 350.332,143.766 350.467,144.267 350.747 C 144.612 350.940,144.891 351.306,144.888 351.561 C 144.884 351.918,144.816 351.919,144.590 351.563 C 144.002 350.638,141.501 351.587,141.183 352.856 C 141.037 353.440,140.831 353.656,140.670 353.395 C 140.384 352.934,139.114 353.238,139.114 353.768 C 139.114 353.940,138.592 354.196,137.954 354.336 C 137.316 354.476,136.552 354.833,136.256 355.129 C 135.960 355.424,134.575 355.883,133.177 356.148 C 131.779 356.414,130.636 356.764,130.636 356.928 C 130.636 357.092,130.217 357.225,129.705 357.225 C 129.192 357.225,128.686 357.442,128.579 357.707 C 128.472 357.972,128.371 358.014,128.354 357.801 C 128.317 357.330,124.855 357.545,124.855 358.017 C 124.855 358.198,123.685 358.398,122.254 358.460 L 119.653 358.574 119.552 371.965 L 119.451 385.356 199.995 385.356 L 280.539 385.356 280.539 372.331 C 280.539 357.367,280.813 358.382,276.779 358.382 C 275.219 358.382,274.036 358.230,274.151 358.045 C 274.265 357.860,273.148 357.590,271.669 357.444 C 270.189 357.298,268.979 357.036,268.979 356.862 C 268.979 356.687,268.545 356.462,268.015 356.360 C 267.457 356.254,267.050 356.356,267.046 356.604 C 267.042 356.903,266.954 356.897,266.756 356.586 C 266.600 356.341,265.822 356.018,265.028 355.869 C 264.234 355.720,263.584 355.472,263.584 355.317 C 263.584 355.163,262.890 354.808,262.042 354.528 C 261.195 354.248,260.501 353.908,260.501 353.773 C 260.501 353.638,259.894 353.307,259.152 353.039 C 258.410 352.771,257.803 352.401,257.803 352.217 C 257.803 352.033,257.413 351.764,256.936 351.619 C 256.460 351.474,255.506 350.768,254.817 350.051 C 254.128 349.333,253.562 348.963,253.559 349.228 C 253.554 349.575,253.456 349.559,253.212 349.173 C 253.025 348.877,252.594 348.742,252.255 348.872 C 251.542 349.146,251.440 348.714,252.070 348.085 C 252.388 347.766,252.086 347.271,250.913 346.193 C 250.040 345.390,249.323 344.466,249.320 344.139 C 249.315 343.650,249.254 343.640,248.976 344.078 C 248.729 344.469,248.567 344.283,248.368 343.378 C 248.219 342.699,247.853 342.051,247.555 341.937 C 247.257 341.822,247.013 341.487,247.013 341.192 C 247.013 340.897,246.710 340.652,246.339 340.649 C 245.815 340.645,245.781 340.570,246.186 340.313 C 246.706 339.983,245.477 337.033,244.536 336.352 C 244.339 336.209,244.132 335.862,244.077 335.580 C 243.718 333.757,243.522 333.172,243.207 332.976 C 243.011 332.855,242.762 332.235,242.654 331.599 C 242.546 330.963,242.334 329.706,242.182 328.805 C 242.030 327.905,241.772 327.168,241.608 327.168 C 241.445 327.168,241.189 325.954,241.040 324.470 C 240.891 322.987,240.657 321.773,240.520 321.773 C 240.382 321.773,240.321 320.169,240.385 318.208 C 240.466 315.670,240.385 314.810,240.101 315.222 C 239.817 315.634,239.702 314.496,239.698 311.249 C 239.694 308.312,239.828 306.783,240.077 306.936 C 240.312 307.082,240.462 306.491,240.462 305.418 L 240.462 303.661 280.250 303.641 C 302.134 303.630,322.232 303.638,324.914 303.659 C 328.579 303.688,329.838 303.574,329.989 303.198 C 330.142 302.817,330.197 302.813,330.220 303.179 C 330.256 303.747,331.792 303.841,331.792 303.276 C 331.792 303.064,331.590 302.890,331.342 302.890 C 331.095 302.890,331.023 302.760,331.181 302.602 C 331.340 302.443,331.699 302.627,331.979 303.011 C 332.633 303.905,378.411 303.881,378.709 302.987 C 378.797 302.722,379.039 302.505,379.246 302.505 C 379.452 302.505,379.530 302.653,379.418 302.835 C 379.306 303.016,379.637 303.083,380.153 302.985 C 380.670 302.886,381.204 302.455,381.340 302.026 C 381.488 301.558,381.690 301.414,381.845 301.664 C 382.136 302.134,385.356 301.483,385.356 300.954 C 385.356 300.789,385.877 300.472,386.513 300.250 C 387.148 300.029,387.669 299.665,387.669 299.442 C 387.669 299.219,387.896 299.037,388.174 299.037 C 388.452 299.037,389.098 298.646,389.610 298.170 C 390.122 297.693,390.638 297.303,390.758 297.303 C 391.211 297.303,393.449 294.746,393.449 294.228 C 393.449 293.930,393.954 293.387,394.572 293.022 C 395.725 292.341,396.532 291.037,396.532 289.856 C 396.532 289.489,396.879 288.892,397.303 288.529 C 397.726 288.166,398.073 287.607,398.073 287.287 C 398.073 286.967,398.223 286.705,398.406 286.705 C 399.800 286.705,399.807 285.973,399.807 150.482 C 399.807 11.976,399.854 15.984,398.207 14.337 C 397.921 14.051,397.688 13.560,397.688 13.245 C 397.688 12.929,397.531 12.768,397.338 12.887 C 397.146 13.006,397.080 12.756,397.191 12.332 C 397.302 11.908,397.220 11.561,397.009 11.561 C 396.798 11.561,396.410 11.040,396.146 10.405 C 395.883 9.769,395.527 9.249,395.355 9.249 C 395.183 9.249,394.938 8.919,394.810 8.516 C 394.440 7.351,390.803 3.858,390.201 4.089 C 389.872 4.215,389.462 3.873,389.143 3.207 C 388.856 2.609,388.401 2.119,388.131 2.119 C 387.861 2.119,387.517 1.934,387.366 1.708 C 387.214 1.481,386.350 1.004,385.445 0.648 C 383.505 -0.116,16.960 -0.370,15.800 0.391 M365.703 134.971 L 365.703 235.838 200.578 235.838 L 35.453 235.838 35.453 135.132 C 35.453 79.743,35.525 34.353,35.613 34.265 C 35.702 34.176,110.008 34.104,200.739 34.104 L 365.703 34.104 365.703 134.971 M138.079 50.062 C 137.192 50.886,136.552 51.645,136.657 51.750 C 136.761 51.854,136.598 52.535,136.294 53.262 C 135.991 53.989,135.793 55.222,135.854 56.001 C 135.916 56.780,135.808 57.418,135.613 57.418 C 135.161 57.418,135.156 58.769,135.606 59.639 C 135.796 60.007,136.136 61.739,136.362 63.488 C 136.795 66.838,137.298 67.822,138.428 67.527 C 138.926 67.397,139.114 67.571,139.114 68.163 C 139.114 68.625,138.867 68.979,138.545 68.979 C 137.935 68.979,138.109 71.116,138.779 71.850 C 138.963 72.051,139.114 72.613,139.114 73.099 C 139.114 73.585,139.437 74.184,139.833 74.431 C 140.253 74.694,140.477 75.165,140.371 75.568 C 140.266 75.973,140.592 76.658,141.162 77.228 C 141.758 77.824,142.059 78.476,141.943 78.920 C 141.831 79.349,142.158 80.121,142.746 80.821 C 143.292 81.469,143.738 82.158,143.738 82.352 C 143.738 82.546,144.001 83.041,144.322 83.452 C 144.691 83.926,144.868 83.997,144.803 83.645 C 144.638 82.744,145.782 82.796,146.821 83.738 C 148.750 85.486,148.879 85.803,148.013 86.669 L 147.227 87.455 148.563 88.911 C 149.298 89.711,149.901 90.490,149.902 90.642 C 149.903 90.793,150.271 91.114,150.721 91.354 C 151.352 91.692,151.472 91.685,151.250 91.325 C 150.961 90.858,151.652 90.191,152.435 90.179 C 153.700 90.161,157.405 96.451,156.358 96.839 C 156.088 96.940,156.341 97.203,156.936 97.440 C 157.519 97.672,157.996 98.033,157.996 98.242 C 157.996 98.927,161.379 102.119,162.104 102.119 C 162.494 102.119,163.297 102.726,163.889 103.468 C 164.481 104.210,165.229 104.817,165.552 104.817 C 166.284 104.817,168.192 107.037,168.172 107.865 C 168.141 109.120,167.440 118.818,167.139 122.151 C 167.083 122.767,167.258 123.123,167.630 123.152 C 168.830 123.245,168.888 123.333,168.231 124.060 C 167.762 124.578,167.503 125.668,167.383 127.624 C 167.288 129.175,167.139 130.654,167.051 130.913 C 166.964 131.171,167.086 131.501,167.321 131.646 C 167.557 131.792,167.647 131.746,167.522 131.544 C 167.190 131.006,167.857 130.107,168.358 130.417 C 168.874 130.735,168.929 132.429,168.434 132.735 C 168.240 132.855,167.995 132.735,167.890 132.469 C 167.785 132.202,167.691 132.505,167.681 133.141 C 167.671 133.776,167.550 134.949,167.411 135.747 C 167.252 136.662,167.330 137.403,167.621 137.754 C 167.897 138.087,167.983 138.770,167.833 139.451 C 167.696 140.078,167.747 140.908,167.947 141.297 C 169.217 143.763,169.324 144.175,168.884 144.881 C 168.536 145.437,168.593 146.008,169.145 147.518 C 169.532 148.578,169.766 149.879,169.665 150.408 C 169.544 151.044,169.746 151.634,170.261 152.149 C 170.700 152.588,170.960 153.238,170.857 153.634 C 170.754 154.026,171.024 154.716,171.463 155.188 C 171.898 155.655,172.254 156.385,172.254 156.811 C 172.254 157.236,172.775 158.116,173.410 158.767 C 174.046 159.417,174.566 160.194,174.566 160.493 C 174.566 160.792,175.194 161.696,175.961 162.503 C 176.729 163.309,177.254 163.666,177.130 163.295 C 176.849 162.460,177.219 162.439,178.341 163.225 C 179.361 163.939,179.087 164.689,177.939 164.324 C 177.321 164.128,177.448 164.389,178.492 165.465 C 179.237 166.232,179.972 166.859,180.125 166.859 C 180.278 166.859,181.041 167.587,181.820 168.476 C 183.942 170.897,185.026 171.869,185.605 171.869 C 185.892 171.869,186.127 172.000,186.127 172.160 C 186.127 172.320,186.691 172.692,187.380 172.986 C 188.068 173.280,189.022 173.873,189.499 174.303 C 190.255 174.986,190.366 175.004,190.366 174.441 C 190.366 174.086,190.626 173.796,190.944 173.796 C 191.642 173.796,191.719 174.816,191.040 175.063 C 190.776 175.160,191.203 175.366,191.991 175.521 C 192.871 175.695,193.509 176.074,193.646 176.507 C 193.769 176.894,194.380 177.323,195.003 177.460 C 195.627 177.597,196.237 177.869,196.357 178.064 C 196.698 178.615,198.064 178.484,198.710 177.838 C 199.436 177.112,199.991 177.410,199.735 178.387 C 199.604 178.889,199.831 179.279,200.445 179.606 C 201.236 180.028,201.289 180.015,200.870 179.507 C 200.288 178.801,200.606 178.420,201.776 178.420 C 202.843 178.420,203.380 179.152,202.651 179.613 C 202.254 179.865,202.333 179.951,202.964 179.956 C 203.428 179.959,203.915 179.788,204.046 179.576 C 204.432 178.952,205.897 179.103,205.652 179.741 C 205.195 180.932,206.454 181.193,212.931 181.252 C 216.452 181.284,219.419 181.224,219.525 181.118 C 219.631 181.012,219.833 180.919,219.974 180.911 C 220.116 180.904,220.635 180.674,221.128 180.400 C 221.622 180.126,222.266 179.994,222.559 180.107 C 222.853 180.220,223.428 179.886,223.837 179.366 C 224.320 178.752,224.971 178.420,225.692 178.420 C 226.327 178.420,227.087 178.089,227.464 177.649 C 227.827 177.225,228.490 176.879,228.939 176.879 C 230.202 176.879,232.810 174.634,232.675 173.663 C 232.603 173.140,232.802 172.804,233.237 172.717 C 233.650 172.635,233.911 172.818,233.911 173.189 C 233.911 173.523,234.171 173.796,234.489 173.796 C 234.807 173.796,235.067 173.536,235.067 173.218 C 235.067 172.900,235.284 172.634,235.549 172.628 C 236.169 172.612,238.150 170.874,238.150 170.346 C 238.150 170.124,238.324 169.942,238.536 169.942 C 238.748 169.942,238.921 169.730,238.921 169.470 C 238.921 168.967,241.544 166.474,242.074 166.474 C 242.247 166.474,242.389 166.040,242.389 165.511 C 242.389 164.113,243.255 164.309,244.941 166.089 C 245.744 166.936,246.693 167.630,247.049 167.630 C 247.404 167.630,247.980 168.064,248.327 168.593 C 248.699 169.162,249.324 169.557,249.851 169.557 C 250.426 169.557,250.898 169.895,251.177 170.510 C 251.425 171.054,252.071 171.570,252.684 171.712 C 253.274 171.850,254.635 172.852,255.708 173.939 C 258.202 176.467,260.475 178.420,260.922 178.420 C 261.114 178.420,261.272 178.658,261.272 178.949 C 261.272 179.502,265.424 184.357,265.969 184.441 C 266.141 184.468,266.389 184.511,266.521 184.538 C 266.653 184.564,266.551 184.838,266.295 185.147 C 266.039 185.456,265.955 185.910,266.107 186.158 C 266.260 186.405,266.460 187.670,266.550 188.968 C 266.641 190.267,266.878 191.494,267.076 191.696 C 267.570 192.196,267.532 193.353,267.016 193.525 C 266.608 193.661,265.899 196.193,265.767 197.981 C 265.732 198.461,265.400 198.949,265.029 199.067 C 264.658 199.185,264.355 199.585,264.355 199.957 C 264.355 200.725,262.028 202.807,259.570 204.239 C 256.918 205.784,255.844 206.789,256.108 207.476 C 256.406 208.254,255.730 208.277,254.968 207.514 C 254.650 207.197,254.074 206.932,253.688 206.926 C 253.141 206.918,253.262 206.685,254.242 205.866 C 255.541 204.781,255.886 204.112,254.963 204.466 C 254.377 204.691,253.788 203.614,254.317 203.287 C 254.766 203.009,255.877 203.459,255.877 203.918 C 255.877 204.119,256.061 204.171,256.286 204.032 C 257.591 203.225,258.233 196.532,257.004 196.532 C 256.090 196.532,255.700 195.860,256.239 195.211 C 256.562 194.822,256.523 194.640,256.079 194.469 C 255.231 194.144,255.356 193.027,256.268 192.788 C 256.977 192.603,256.909 192.438,255.497 190.906 C 254.550 189.879,253.950 188.853,253.950 188.263 C 253.950 187.530,253.695 187.236,252.890 187.039 C 252.307 186.896,251.744 186.675,251.638 186.547 C 251.399 186.261,248.846 185.356,248.275 185.356 C 248.045 185.356,247.947 185.703,248.058 186.127 C 248.225 186.766,248.071 186.897,247.155 186.893 C 245.504 186.885,244.316 186.484,244.316 185.935 C 244.316 185.416,242.693 185.399,241.541 185.907 C 241.180 186.066,240.703 186.083,240.481 185.946 C 240.259 185.809,240.077 185.859,240.077 186.058 C 240.077 186.257,239.129 187.136,237.969 188.011 C 236.810 188.887,235.654 189.991,235.401 190.466 C 234.984 191.249,235.001 191.280,235.582 190.801 C 235.935 190.510,236.224 190.439,236.224 190.642 C 236.224 190.846,235.784 191.213,235.248 191.458 C 234.477 191.809,234.282 192.166,234.317 193.157 C 234.341 193.848,234.094 195.106,233.768 195.954 C 232.987 197.982,232.980 199.577,233.751 199.873 C 234.242 200.061,234.261 200.170,233.847 200.427 C 233.431 200.686,233.425 200.895,233.815 201.524 C 234.080 201.952,234.297 202.618,234.297 203.005 C 234.297 203.867,235.662 205.395,236.431 205.395 C 236.741 205.395,236.994 205.676,236.994 206.020 C 236.994 206.536,236.892 206.561,236.407 206.158 C 235.413 205.333,236.209 206.952,237.453 208.285 C 238.047 208.921,238.533 209.560,238.534 209.704 C 238.535 209.849,238.900 210.083,239.344 210.224 C 239.789 210.365,240.500 210.827,240.924 211.251 C 241.413 211.740,242.028 211.958,242.608 211.847 C 243.111 211.751,243.426 211.828,243.308 212.019 C 242.968 212.568,243.943 213.487,244.864 213.487 C 245.326 213.487,245.868 213.645,246.069 213.839 C 246.884 214.620,251.693 214.655,251.447 213.878 C 251.323 213.487,251.386 213.065,251.587 212.941 C 252.174 212.578,253.242 213.153,253.026 213.715 C 252.879 214.099,253.264 214.221,254.546 214.195 C 255.490 214.176,256.262 214.027,256.262 213.865 C 256.262 213.702,256.652 213.574,257.129 213.580 C 258.166 213.593,260.491 212.716,261.203 212.042 C 261.483 211.777,261.873 211.561,262.070 211.561 C 262.267 211.561,262.428 211.301,262.428 210.983 C 262.428 210.665,262.645 210.404,262.909 210.404 C 263.174 210.403,263.933 209.926,264.596 209.344 C 269.661 204.893,270.520 204.070,270.520 203.663 C 270.520 203.410,270.867 202.888,271.291 202.505 C 271.715 202.121,272.062 201.485,272.062 201.091 C 272.062 200.400,272.293 199.824,273.310 197.977 C 274.124 196.499,274.106 186.630,273.288 185.812 C 272.927 185.451,272.684 184.877,272.750 184.536 C 272.815 184.196,272.427 183.393,271.887 182.751 C 271.347 182.109,270.906 181.253,270.906 180.848 C 270.906 180.443,270.277 179.428,269.508 178.592 C 268.739 177.755,267.520 176.353,266.798 175.475 C 265.688 174.125,263.526 172.767,264.186 173.834 C 264.305 174.028,264.107 174.300,263.745 174.439 C 262.928 174.753,261.950 173.537,262.253 172.583 C 262.379 172.187,262.141 171.582,261.677 171.118 C 261.242 170.683,260.886 170.185,260.886 170.012 C 260.886 169.498,259.005 168.015,258.354 168.015 C 258.024 168.015,257.300 167.476,256.745 166.817 C 255.852 165.755,255.684 165.689,255.282 166.239 C 254.674 167.070,254.460 167.022,254.197 165.992 C 254.075 165.515,253.492 164.645,252.903 164.058 C 251.179 162.342,247.539 159.263,247.035 159.095 C 246.687 158.979,246.721 158.513,247.172 157.216 C 247.503 156.267,247.776 155.111,247.779 154.647 C 247.782 154.183,247.958 153.696,248.170 153.565 C 248.382 153.434,248.555 152.335,248.555 151.123 C 248.555 149.911,248.736 147.477,248.957 145.714 C 249.194 143.821,249.218 142.326,249.015 142.063 C 248.825 141.819,248.445 140.491,248.170 139.114 C 247.894 137.736,247.506 136.400,247.308 136.144 C 247.110 135.888,247.064 135.491,247.206 135.260 C 247.349 135.029,247.190 134.421,246.854 133.908 C 246.518 133.395,246.243 132.722,246.243 132.413 C 246.243 132.104,245.756 131.361,245.161 130.762 C 244.566 130.163,243.964 129.369,243.824 128.998 C 243.684 128.627,243.391 128.324,243.172 128.324 C 242.953 128.324,242.775 127.994,242.775 127.590 C 242.775 126.808,239.069 122.551,238.373 122.533 C 238.144 122.527,237.524 121.925,236.994 121.195 C 236.464 120.464,235.760 119.862,235.429 119.856 C 235.098 119.851,234.491 119.538,234.080 119.162 C 232.746 117.939,230.049 117.260,229.614 118.037 C 229.413 118.396,229.008 118.690,228.713 118.690 C 227.830 118.690,227.620 117.903,228.358 117.363 C 229.252 116.710,227.224 115.513,225.838 115.876 C 225.303 116.015,224.842 115.898,224.639 115.569 C 224.263 114.960,217.796 114.356,217.135 114.869 C 216.916 115.039,215.789 115.247,214.630 115.331 C 213.472 115.415,212.264 115.578,211.946 115.693 C 211.628 115.807,210.588 116.125,209.634 116.399 C 207.357 117.053,206.997 117.404,207.915 118.076 C 208.646 118.610,208.647 118.635,207.931 119.426 C 206.730 120.753,205.123 120.155,206.229 118.792 C 206.512 118.443,206.180 118.570,205.491 119.074 C 204.803 119.578,204.239 120.120,204.239 120.278 C 204.239 120.436,203.892 120.675,203.468 120.809 C 203.044 120.944,202.697 121.288,202.697 121.574 C 202.697 121.860,202.481 122.181,202.216 122.288 C 201.912 122.411,201.967 122.494,202.367 122.513 C 203.384 122.562,203.522 123.618,202.596 124.267 C 201.495 125.038,200.771 125.014,200.771 124.206 C 200.771 123.372,199.283 121.777,198.707 121.993 C 198.464 122.084,197.846 121.541,197.334 120.787 C 196.764 119.949,195.981 119.331,195.322 119.199 C 194.728 119.081,194.139 118.657,194.012 118.259 C 193.886 117.860,193.534 117.534,193.230 117.534 C 192.927 117.534,192.678 117.360,192.678 117.148 C 192.678 116.936,192.360 116.763,191.971 116.763 C 191.582 116.763,190.791 116.232,190.213 115.583 C 189.634 114.934,188.966 114.468,188.728 114.547 C 188.244 114.709,187.166 113.744,186.555 112.603 C 186.289 112.106,186.268 110.830,186.493 108.824 C 186.680 107.157,186.740 105.644,186.626 105.460 C 186.512 105.276,186.366 103.239,186.301 100.933 C 186.236 98.628,186.047 96.521,185.880 96.251 C 185.713 95.982,185.539 94.894,185.493 93.834 C 185.447 92.775,185.305 91.387,185.179 90.751 C 185.053 90.116,184.901 89.114,184.841 88.527 C 184.782 87.939,184.415 87.159,184.027 86.793 C 183.639 86.427,183.442 86.344,183.591 86.609 C 183.756 86.904,183.627 87.091,183.260 87.091 C 182.929 87.091,182.659 86.830,182.659 86.513 C 182.659 86.195,182.919 85.934,183.237 85.934 C 184.020 85.934,183.964 85.457,183.044 84.288 C 182.620 83.749,182.274 83.053,182.274 82.742 C 182.274 82.430,182.015 81.961,181.699 81.699 C 181.369 81.425,181.209 80.872,181.323 80.399 C 181.560 79.416,179.537 77.071,178.452 77.071 C 176.480 77.071,174.431 74.192,175.715 73.224 L 176.569 72.579 174.578 70.297 C 172.438 67.846,171.869 67.432,171.869 68.327 C 171.869 69.879,170.508 69.412,168.813 67.278 C 167.630 65.790,167.984 63.813,169.289 64.620 C 169.509 64.756,169.355 64.410,168.948 63.852 C 168.541 63.294,167.861 62.830,167.437 62.822 C 167.013 62.813,166.243 62.270,165.726 61.615 C 164.805 60.449,164.779 60.442,164.474 61.266 C 164.068 62.364,163.339 62.091,162.884 60.670 C 162.477 59.395,161.163 57.803,160.519 57.803 C 160.286 57.803,159.781 57.438,159.399 56.991 C 158.873 56.377,158.428 56.234,157.579 56.403 C 156.743 56.570,156.455 56.482,156.455 56.060 C 156.455 55.747,156.641 55.491,156.870 55.491 C 157.098 55.491,156.769 55.058,156.140 54.528 C 155.510 53.998,154.743 53.565,154.436 53.565 C 154.128 53.565,153.563 53.218,153.179 52.794 C 152.796 52.370,152.195 52.023,151.844 52.023 C 151.494 52.023,150.870 51.769,150.459 51.457 C 149.451 50.695,147.977 50.701,147.977 51.468 C 147.977 51.798,147.811 51.966,147.608 51.841 C 147.406 51.716,147.330 51.379,147.439 51.093 C 147.625 50.609,146.778 50.132,144.247 49.298 C 143.619 49.091,143.460 49.156,143.613 49.556 C 143.874 50.235,142.668 50.722,142.110 50.164 C 141.807 49.860,141.827 49.578,142.183 49.149 C 143.411 47.669,139.788 48.475,138.079 50.062 M156.896 62.999 C 157.395 63.525,158.050 63.959,158.351 63.963 C 158.652 63.966,159.204 64.245,159.577 64.583 C 160.204 65.150,160.240 65.139,160.055 64.433 C 159.946 64.014,160.025 63.566,160.231 63.439 C 160.660 63.174,161.694 64.254,161.345 64.602 C 161.219 64.728,161.352 65.068,161.641 65.357 C 161.930 65.646,162.079 66.218,161.971 66.629 C 161.838 67.138,162.290 67.932,163.398 69.134 C 164.376 70.195,164.933 71.121,164.800 71.465 C 164.680 71.780,164.747 72.139,164.949 72.265 C 165.152 72.390,165.318 72.984,165.318 73.585 C 165.318 74.185,165.566 74.772,165.869 74.888 C 166.187 75.010,166.522 75.883,166.661 76.953 C 167.119 80.481,167.213 80.731,167.784 79.950 C 168.402 79.104,169.176 79.514,169.113 80.655 C 169.088 81.121,169.196 81.806,169.353 82.177 C 169.562 82.669,169.460 82.852,168.975 82.852 C 168.501 82.852,168.368 82.631,168.512 82.081 C 168.623 81.658,168.579 81.228,168.414 81.126 C 167.940 80.833,167.620 83.654,168.038 84.436 C 168.246 84.824,168.384 86.029,168.346 87.114 C 168.302 88.357,168.457 89.199,168.764 89.389 C 169.118 89.608,169.143 89.892,168.854 90.431 C 168.244 91.572,168.119 96.438,168.696 96.630 C 169.199 96.798,169.376 99.055,168.882 99.011 C 168.724 98.996,167.661 97.855,166.521 96.474 C 165.018 94.654,164.254 94.014,163.742 94.148 C 163.255 94.275,162.714 93.896,161.998 92.927 C 161.427 92.154,160.633 91.175,160.234 90.751 C 157.678 88.038,156.465 86.406,156.460 85.675 C 156.455 84.916,155.299 83.210,153.765 81.696 C 153.443 81.378,153.131 80.688,153.072 80.163 C 153.013 79.639,152.722 79.073,152.425 78.907 C 152.126 78.740,151.767 77.662,151.621 76.489 C 151.475 75.326,151.203 74.374,151.015 74.374 C 150.533 74.374,150.590 71.389,151.078 71.087 C 151.353 70.917,151.333 70.657,151.015 70.274 C 150.485 69.635,150.282 67.102,150.738 66.820 C 151.034 66.637,151.919 64.812,152.355 63.487 C 152.487 63.087,152.964 62.813,153.530 62.813 C 154.054 62.813,154.590 62.640,154.721 62.428 C 155.121 61.779,155.944 61.995,156.896 62.999 M163.391 66.882 C 163.391 67.187,163.131 67.437,162.813 67.437 C 162.233 67.437,162.021 66.624,162.481 66.163 C 162.841 65.804,163.391 66.238,163.391 66.882 M155.087 83.591 C 155.207 83.786,155.020 84.231,154.672 84.579 C 153.848 85.404,153.003 84.723,153.744 83.831 C 154.304 83.157,154.767 83.074,155.087 83.591 M166.640 97.066 C 166.936 97.545,165.827 98.388,165.316 98.072 C 165.015 97.886,165.024 97.657,165.346 97.268 C 165.863 96.646,166.334 96.572,166.640 97.066 M186.127 104.794 C 186.127 105.675,185.520 106.163,185.156 105.576 C 184.833 105.052,185.210 104.046,185.730 104.046 C 185.948 104.046,186.127 104.383,186.127 104.794 M169.083 119.774 C 169.167 120.025,168.961 120.231,168.626 120.231 C 168.290 120.231,168.015 119.957,168.015 119.621 C 168.015 118.941,168.845 119.059,169.083 119.774 M188.258 120.916 C 188.272 121.847,190.124 124.085,190.880 124.085 C 191.160 124.085,191.894 124.692,192.513 125.434 C 193.131 126.175,193.938 126.782,194.305 126.782 C 195.783 126.782,196.975 130.230,195.879 131.338 C 195.602 131.618,195.376 132.316,195.376 132.890 C 195.376 133.463,195.141 134.275,194.854 134.693 C 194.096 135.796,193.764 141.182,194.399 142.051 C 194.775 142.565,194.793 142.908,194.473 143.420 C 194.155 143.930,194.167 144.224,194.518 144.576 C 194.778 144.836,194.990 145.449,194.990 145.940 C 194.990 146.430,195.164 147.176,195.376 147.597 C 195.588 148.018,195.934 148.707,196.146 149.128 C 196.358 149.549,196.532 150.210,196.532 150.596 C 196.532 150.983,196.865 151.658,197.273 152.095 C 197.761 152.619,197.884 153.021,197.634 153.272 C 197.383 153.523,197.468 153.868,197.883 154.283 C 198.609 155.009,199.274 155.114,199.133 154.480 C 199.080 154.241,199.253 153.967,199.518 153.870 C 199.825 153.757,200.000 154.055,200.000 154.689 C 200.000 155.236,200.132 155.684,200.294 155.684 C 200.455 155.684,201.452 156.794,202.510 158.150 C 204.197 160.315,206.420 162.426,205.579 161.064 C 205.204 160.458,206.205 159.861,206.787 160.344 C 207.038 160.552,207.165 161.019,207.071 161.382 C 206.870 162.155,210.007 164.068,210.736 163.617 C 210.983 163.464,211.284 163.610,211.412 163.945 C 211.555 164.317,212.113 164.547,212.874 164.547 C 213.550 164.547,214.295 164.738,214.528 164.971 C 214.793 165.236,215.290 165.274,215.857 165.073 C 216.355 164.897,217.457 164.749,218.304 164.746 C 219.680 164.741,219.833 164.647,219.725 163.873 C 219.589 162.895,220.105 162.735,220.778 163.546 C 221.123 163.962,221.112 164.125,220.730 164.253 C 220.456 164.344,221.152 164.451,222.275 164.490 C 223.667 164.540,224.503 164.376,224.903 163.977 C 225.225 163.655,225.796 163.391,226.172 163.391 C 227.699 163.391,229.150 160.158,228.037 159.234 C 227.115 158.469,220.011 158.655,219.746 159.452 C 219.561 160.007,218.497 160.092,218.497 159.552 C 218.497 159.349,217.760 158.986,216.859 158.747 C 215.959 158.508,214.844 157.963,214.383 157.536 C 213.922 157.109,213.359 156.874,213.131 157.015 C 212.904 157.155,212.318 156.804,211.828 156.235 C 211.029 155.307,210.852 155.253,210.111 155.716 C 209.165 156.307,208.654 156.013,209.012 155.083 C 209.152 154.717,209.498 154.541,209.830 154.669 C 210.627 154.974,210.554 154.265,209.742 153.810 C 209.304 153.565,209.110 153.043,209.168 152.271 C 209.227 151.504,209.033 150.977,208.603 150.737 C 207.612 150.182,207.198 141.437,208.147 141.096 C 208.356 141.021,208.686 140.544,208.879 140.037 C 209.306 138.912,210.053 138.858,210.983 139.884 C 211.366 140.308,212.017 140.655,212.429 140.655 C 213.145 140.655,216.570 143.894,216.570 144.570 C 216.570 144.748,216.884 144.894,217.268 144.894 C 217.652 144.894,218.339 145.241,218.794 145.665 C 219.249 146.089,219.888 146.435,220.215 146.435 C 220.542 146.435,220.809 146.567,220.809 146.728 C 220.809 147.524,224.039 150.294,224.716 150.079 C 225.190 149.929,225.434 150.041,225.434 150.409 C 225.434 151.324,226.453 151.971,226.736 151.235 C 227.143 150.174,228.709 150.692,228.709 151.888 C 228.709 153.016,230.508 155.299,231.398 155.299 C 231.708 155.299,232.332 155.799,232.784 156.411 C 233.236 157.023,234.048 157.760,234.587 158.048 C 236.662 159.159,238.173 161.040,237.346 161.483 C 236.940 161.699,236.603 162.174,236.597 162.538 C 236.582 163.299,235.724 164.547,235.215 164.547 C 235.025 164.547,234.312 165.154,233.632 165.896 C 232.951 166.638,232.300 167.245,232.186 167.245 C 232.071 167.245,231.455 167.711,230.816 168.280 C 230.176 168.850,229.285 169.343,228.835 169.376 C 228.384 169.409,227.806 169.724,227.549 170.075 C 227.293 170.426,226.880 170.713,226.631 170.713 C 226.383 170.713,226.086 170.957,225.972 171.256 C 225.843 171.591,224.897 171.900,223.507 172.062 C 222.116 172.223,221.170 172.532,221.042 172.867 C 220.927 173.166,220.510 173.410,220.115 173.410 C 219.720 173.410,219.279 173.527,219.137 173.670 C 218.791 174.016,217.204 174.196,214.775 174.166 C 213.682 174.152,212.674 174.323,212.537 174.546 C 212.172 175.136,210.522 175.043,210.283 174.420 C 210.002 173.687,207.069 173.664,206.790 174.392 C 206.664 174.721,206.323 174.840,205.934 174.691 C 205.331 174.459,205.332 174.410,205.946 173.961 C 206.573 173.502,205.883 172.949,204.560 172.851 C 204.419 172.841,204.173 172.702,204.014 172.543 C 203.855 172.384,203.320 172.254,202.826 172.254 C 202.284 172.254,201.927 172.025,201.927 171.676 C 201.927 171.358,201.607 171.098,201.216 171.098 C 200.825 171.098,200.189 170.749,199.802 170.322 C 199.388 169.864,198.825 169.633,198.430 169.758 C 197.978 169.902,197.490 169.591,196.927 168.801 C 196.469 168.157,195.788 167.630,195.414 167.630 C 195.040 167.630,194.114 166.919,193.357 166.049 C 192.391 164.941,191.998 164.682,192.040 165.182 C 192.081 165.663,191.801 165.938,191.183 166.025 C 190.375 166.140,190.295 166.039,190.510 165.182 C 190.758 164.194,190.191 163.368,189.874 164.256 C 189.779 164.522,189.566 164.614,189.401 164.460 C 189.014 164.100,189.957 162.946,190.410 163.225 C 191.160 163.689,190.676 162.891,189.315 161.420 C 188.122 160.131,187.859 159.543,187.761 157.956 C 187.683 156.687,187.388 155.789,186.885 155.286 C 186.438 154.838,186.127 154.007,186.127 153.256 C 186.127 152.557,185.978 151.820,185.796 151.618 C 185.384 151.162,184.586 147.111,184.586 145.472 C 184.586 144.801,184.456 144.120,184.297 143.959 C 183.935 143.593,183.913 138.608,184.271 138.336 C 184.934 137.833,185.109 127.524,184.450 127.777 C 184.013 127.945,183.815 127.815,183.815 127.360 C 183.815 126.959,184.022 126.779,184.343 126.902 C 184.894 127.114,185.346 124.763,185.353 121.649 C 185.356 120.268,185.397 120.217,186.006 120.826 C 186.615 121.435,186.675 121.423,186.969 120.628 C 187.350 119.597,188.242 119.796,188.258 120.916 M240.041 125.185 C 239.471 125.380,239.182 124.983,239.509 124.455 C 239.716 124.119,239.872 124.138,240.113 124.525 C 240.304 124.832,240.274 125.104,240.041 125.185 M198.750 128.420 C 198.662 128.685,198.215 128.957,197.756 129.025 C 197.131 129.117,196.979 128.995,197.153 128.543 C 197.427 127.828,198.984 127.708,198.750 128.420 M219.736 130.306 C 219.845 130.633,220.102 130.629,220.739 130.288 C 221.210 130.036,221.728 129.911,221.889 130.011 C 222.051 130.111,223.478 130.232,225.061 130.281 C 226.643 130.330,228.285 130.576,228.709 130.829 C 229.985 131.588,231.536 131.742,231.770 131.132 C 231.885 130.832,232.157 130.697,232.374 130.831 C 232.590 130.965,232.686 131.206,232.587 131.367 C 232.294 131.842,234.678 134.489,235.399 134.489 C 235.763 134.489,236.703 135.258,237.488 136.198 C 238.426 137.319,239.281 137.948,239.978 138.028 C 240.760 138.118,241.075 138.393,241.170 139.069 C 241.283 139.867,241.172 139.963,240.321 139.800 L 239.342 139.613 240.191 140.655 C 240.658 141.228,241.257 141.618,241.522 141.520 C 241.787 141.423,242.004 141.622,242.004 141.963 C 242.004 142.303,241.779 142.582,241.504 142.582 C 240.741 142.582,241.174 145.927,242.087 147.089 C 243.072 148.342,241.534 154.534,240.476 153.577 C 240.117 153.252,239.522 152.987,239.152 152.987 C 238.405 152.987,237.380 152.111,237.380 151.473 C 237.380 151.246,237.049 151.060,236.645 151.060 C 236.241 151.060,235.336 150.366,234.635 149.518 C 233.934 148.671,233.040 147.977,232.648 147.977 C 232.256 147.977,231.497 147.457,230.962 146.821 C 230.427 146.185,229.694 145.665,229.332 145.665 C 228.971 145.665,228.018 144.971,227.215 144.123 C 226.411 143.276,225.603 142.582,225.418 142.582 C 224.811 142.582,222.238 140.662,220.754 139.102 C 219.954 138.261,218.950 137.572,218.524 137.572 C 218.098 137.572,217.354 137.037,216.871 136.382 C 216.388 135.727,215.385 134.930,214.644 134.611 C 213.437 134.092,213.376 133.999,214.066 133.728 C 214.489 133.561,215.167 133.057,215.570 132.608 C 215.974 132.159,216.715 131.792,217.216 131.792 C 217.815 131.792,218.279 131.461,218.567 130.829 C 219.037 129.797,219.498 129.591,219.736 130.306 M222.929 141.811 C 222.798 142.023,222.441 142.197,222.135 142.197 C 221.830 142.197,221.580 142.023,221.580 141.811 C 221.580 141.599,221.937 141.426,222.373 141.426 C 222.810 141.426,223.060 141.599,222.929 141.811 M197.110 148.105 C 197.110 149.110,196.354 149.047,196.210 148.030 C 196.122 147.406,196.243 147.174,196.596 147.292 C 196.878 147.386,197.110 147.752,197.110 148.105 M239.692 160.286 C 239.692 160.740,238.940 161.227,238.664 160.951 C 238.388 160.675,238.874 159.923,239.329 159.923 C 239.529 159.923,239.692 160.086,239.692 160.286 M250.482 168.786 C 250.482 168.998,250.222 169.171,249.904 169.171 C 249.586 169.171,249.326 168.998,249.326 168.786 C 249.326 168.574,249.586 168.401,249.904 168.401 C 250.222 168.401,250.482 168.574,250.482 168.786 M188.439 172.254 C 188.439 172.466,188.179 172.640,187.861 172.640 C 187.543 172.640,187.283 172.466,187.283 172.254 C 187.283 172.042,187.543 171.869,187.861 171.869 C 188.179 171.869,188.439 172.042,188.439 172.254 M261.870 176.912 C 262.245 177.518,261.435 178.180,260.676 177.889 C 260.151 177.687,260.118 177.532,260.505 177.067 C 261.069 176.387,261.515 176.337,261.870 176.912 M240.462 187.884 C 240.462 188.450,239.640 188.644,239.181 188.186 C 238.833 187.837,239.696 186.855,240.121 187.118 C 240.309 187.234,240.462 187.579,240.462 187.884 M234.766 196.602 C 234.177 197.191,233.743 196.757,234.069 195.906 C 234.262 195.404,234.429 195.354,234.772 195.697 C 235.115 196.039,235.113 196.255,234.766 196.602 M258.189 206.936 C 258.189 207.360,257.939 207.707,257.634 207.707 C 256.953 207.707,256.518 207.073,256.840 206.551 C 257.259 205.873,258.189 206.139,258.189 206.936 M202.855 253.722 C 205.549 253.696,206.434 253.807,206.300 254.155 C 206.198 254.422,206.538 254.702,207.095 254.808 C 207.631 254.911,207.977 254.846,207.865 254.665 C 207.753 254.484,207.932 254.335,208.262 254.335 C 208.593 254.335,208.863 254.509,208.863 254.721 C 208.863 254.933,209.055 255.106,209.290 255.106 C 209.524 255.106,209.613 254.837,209.487 254.508 C 209.347 254.144,209.417 254.008,209.665 254.162 C 209.889 254.300,209.979 254.656,209.865 254.952 C 209.751 255.249,209.836 255.491,210.054 255.491 C 210.272 255.491,210.343 255.665,210.212 255.877 C 210.081 256.089,210.150 256.262,210.365 256.262 C 210.904 256.262,215.029 260.333,215.029 260.865 C 215.029 261.102,215.277 261.391,215.579 261.507 C 215.882 261.623,216.348 262.572,216.616 263.615 C 216.926 264.826,217.213 265.338,217.408 265.030 C 217.585 264.751,217.717 265.308,217.720 266.350 C 217.724 267.427,217.958 268.384,218.301 268.728 C 218.617 269.044,218.725 269.360,218.542 269.430 C 218.358 269.500,218.091 270.679,217.947 272.051 C 217.803 273.423,217.552 274.637,217.389 274.749 C 217.225 274.861,216.865 275.776,216.588 276.782 C 216.311 277.789,215.930 278.613,215.740 278.613 C 215.550 278.613,215.230 279.046,215.029 279.576 C 214.827 280.106,214.481 280.539,214.258 280.539 C 214.036 280.539,213.689 280.973,213.487 281.503 C 213.286 282.033,212.847 282.466,212.511 282.466 C 212.175 282.466,212.008 282.640,212.139 282.852 C 212.270 283.064,212.193 283.237,211.969 283.237 C 211.744 283.237,211.561 283.517,211.561 283.860 C 211.561 284.293,211.326 284.422,210.790 284.281 C 210.366 284.171,210.019 284.221,210.019 284.394 C 210.019 284.566,209.152 284.929,208.092 285.201 C 207.033 285.473,206.166 285.812,206.166 285.954 C 206.166 286.422,201.993 286.717,199.136 286.451 C 197.598 286.308,196.582 286.110,196.880 286.011 C 197.177 285.912,196.676 285.580,195.766 285.272 C 194.415 284.815,194.056 284.805,193.802 285.216 C 193.631 285.493,193.356 285.585,193.192 285.421 C 193.028 285.256,193.127 284.977,193.413 284.801 C 193.960 284.463,193.678 283.622,193.018 283.622 C 192.806 283.622,192.740 283.796,192.871 284.008 C 193.002 284.220,192.844 284.393,192.520 284.393 C 192.197 284.393,192.011 284.176,192.108 283.911 C 192.375 283.184,191.748 282.435,190.813 282.365 C 190.277 282.325,189.981 282.044,189.981 281.577 C 189.981 281.177,189.636 280.763,189.210 280.651 C 188.786 280.540,188.439 280.244,188.439 279.993 C 188.439 279.320,187.522 277.463,187.187 277.460 C 187.028 277.458,186.898 277.185,186.898 276.853 C 186.898 276.521,186.693 275.871,186.442 275.408 C 186.191 274.945,186.031 273.916,186.086 273.121 C 186.144 272.284,186.012 271.676,185.771 271.676 C 185.537 271.676,185.356 270.923,185.356 269.942 C 185.356 268.988,185.511 268.208,185.700 268.208 C 185.888 268.208,186.112 267.613,186.197 266.886 C 186.282 266.159,186.214 265.649,186.047 265.753 C 185.879 265.857,185.742 265.671,185.742 265.341 C 185.742 265.010,185.896 264.740,186.085 264.740 C 186.274 264.740,186.538 264.306,186.671 263.776 C 186.804 263.247,187.104 262.813,187.338 262.813 C 187.617 262.813,187.593 262.609,187.267 262.216 C 186.848 261.711,186.901 261.584,187.605 261.400 C 188.505 261.165,188.745 260.525,187.958 260.463 C 187.693 260.441,187.908 260.304,188.436 260.157 C 188.964 260.010,189.587 259.508,189.819 259.042 C 190.052 258.575,190.380 258.322,190.549 258.480 C 190.718 258.638,190.646 258.364,190.389 257.871 C 189.948 257.024,189.969 256.999,190.759 257.422 C 191.466 257.801,191.683 257.746,192.159 257.066 C 192.469 256.624,192.972 256.262,193.278 256.262 C 193.584 256.262,193.834 256.108,193.834 255.919 C 193.834 255.731,194.604 255.349,195.544 255.072 C 196.484 254.794,197.167 254.428,197.062 254.258 C 196.957 254.089,197.315 253.950,197.858 253.950 C 198.400 253.950,198.858 253.733,198.874 253.468 C 198.891 253.203,198.978 253.160,199.067 253.372 C 199.161 253.594,200.769 253.742,202.855 253.722 M13.221 297.083 C 13.114 297.492,12.792 297.917,12.506 298.027 C 11.897 298.260,12.212 297.092,12.881 296.634 C 13.444 296.248,13.440 296.243,13.221 297.083 " stroke="none" fill="#9a8d73" fill-rule="evenodd"></path><path id="path1" d="M142.004 49.326 C 141.657 49.886,142.140 50.489,142.894 50.437 C 143.452 50.399,143.445 50.366,142.843 50.211 C 142.429 50.104,142.226 49.805,142.349 49.485 C 142.589 48.859,142.358 48.753,142.004 49.326 M160.180 63.455 C 160.039 63.597,159.926 63.987,159.929 64.322 C 159.934 64.819,159.997 64.834,160.271 64.401 C 160.478 64.075,160.809 63.992,161.132 64.186 C 161.570 64.450,161.569 64.394,161.128 63.850 C 160.526 63.108,160.527 63.109,160.180 63.455 M162.591 65.970 C 162.324 67.047,162.393 67.437,162.847 67.437 C 163.469 67.437,163.585 66.447,163.006 66.089 C 162.794 65.958,162.607 65.904,162.591 65.970 M153.744 83.831 C 153.351 84.304,153.348 84.521,153.729 84.891 C 154.106 85.258,154.180 85.193,154.078 84.586 C 153.989 84.047,154.152 83.831,154.620 83.868 C 154.989 83.897,155.195 83.767,155.079 83.579 C 154.767 83.073,154.299 83.162,153.744 83.831 M156.207 95.763 C 156.237 96.292,156.392 96.724,156.551 96.724 C 156.959 96.725,156.912 95.273,156.496 95.016 C 156.306 94.899,156.176 95.235,156.207 95.763 M185.101 104.650 C 184.973 104.982,185.075 105.459,185.328 105.710 C 185.683 106.062,185.726 106.003,185.516 105.452 C 185.347 105.009,185.448 104.610,185.782 104.399 C 186.184 104.144,186.195 104.057,185.826 104.052 C 185.554 104.049,185.228 104.318,185.101 104.650 M227.752 117.835 C 227.743 118.539,228.869 118.877,229.409 118.333 C 229.761 117.978,229.703 117.935,229.152 118.145 C 228.709 118.314,228.310 118.213,228.098 117.879 C 227.843 117.477,227.756 117.466,227.752 117.835 M187.106 120.206 C 186.960 120.442,187.090 120.519,187.422 120.391 C 187.744 120.268,188.067 120.438,188.174 120.789 C 188.331 121.304,188.352 121.299,188.304 120.752 C 188.236 119.985,187.461 119.632,187.106 120.206 M168.015 131.213 C 168.230 131.779,168.293 132.444,168.154 132.691 C 167.966 133.028,168.022 133.031,168.377 132.703 C 168.957 132.169,168.775 130.563,168.109 130.344 C 167.737 130.222,167.715 130.425,168.015 131.213 M240.595 138.908 C 240.840 139.431,241.100 139.686,241.173 139.474 C 241.362 138.926,240.939 137.958,240.511 137.958 C 240.309 137.958,240.346 138.377,240.595 138.908 M221.580 141.835 C 221.580 142.274,222.615 142.318,222.879 141.891 C 222.983 141.723,222.733 141.561,222.324 141.530 C 221.915 141.499,221.580 141.636,221.580 141.835 M199.053 154.116 C 198.790 154.542,199.398 155.002,199.754 154.646 C 200.120 154.280,200.052 153.757,199.637 153.757 C 199.438 153.757,199.175 153.919,199.053 154.116 M205.780 160.330 C 205.304 160.656,205.338 160.706,205.973 160.613 C 206.449 160.544,206.703 160.696,206.638 161.011 C 206.580 161.292,206.718 161.407,206.946 161.266 C 207.236 161.087,207.224 160.848,206.908 160.467 C 206.376 159.826,206.496 159.841,205.780 160.330 M238.745 160.282 C 238.482 160.708,239.089 161.167,239.445 160.812 C 239.812 160.445,239.743 159.923,239.329 159.923 C 239.130 159.923,238.867 160.084,238.745 160.282 M177.124 163.196 C 177.245 163.513,177.500 163.676,177.690 163.559 C 177.879 163.442,178.227 163.464,178.461 163.609 C 178.758 163.793,178.729 163.973,178.365 164.204 C 178.015 164.426,177.994 164.537,178.301 164.541 C 179.177 164.553,179.199 163.826,178.341 163.225 C 177.256 162.465,176.840 162.455,177.124 163.196 M249.326 168.786 C 249.326 168.998,249.586 169.171,249.904 169.171 C 250.222 169.171,250.482 168.998,250.482 168.786 C 250.482 168.574,250.222 168.401,249.904 168.401 C 249.586 168.401,249.326 168.574,249.326 168.786 M187.283 172.254 C 187.283 172.466,187.543 172.640,187.861 172.640 C 188.179 172.640,188.439 172.466,188.439 172.254 C 188.439 172.042,188.179 171.869,187.861 171.869 C 187.543 171.869,187.283 172.042,187.283 172.254 M205.638 174.100 C 205.507 174.312,205.653 174.583,205.963 174.702 C 206.549 174.927,207.186 174.303,206.782 173.899 C 206.655 173.771,206.548 173.913,206.545 174.213 C 206.540 174.666,206.483 174.670,206.208 174.236 C 206.004 173.915,205.785 173.862,205.638 174.100 M260.529 177.037 C 260.213 177.418,260.202 177.657,260.492 177.836 C 260.719 177.977,260.858 177.923,260.800 177.717 C 260.741 177.510,260.867 177.341,261.079 177.341 C 261.291 177.341,261.409 177.540,261.340 177.784 C 261.249 178.113,261.334 178.112,261.673 177.779 C 262.131 177.329,261.886 176.493,261.296 176.493 C 261.123 176.493,260.778 176.738,260.529 177.037 M201.854 178.700 C 202.584 178.832,202.661 178.963,202.282 179.420 C 201.902 179.878,201.935 179.934,202.467 179.730 C 203.384 179.378,203.010 178.620,201.897 178.576 C 200.993 178.540,200.991 178.543,201.854 178.700 M204.068 179.540 C 203.950 179.732,204.227 179.792,204.684 179.672 C 205.303 179.510,205.436 179.584,205.203 179.960 C 204.996 180.295,205.041 180.373,205.335 180.191 C 205.580 180.040,205.780 179.753,205.780 179.553 C 205.780 179.089,204.354 179.078,204.068 179.540 M239.956 187.523 C 240.153 188.038,240.061 188.130,239.546 187.933 C 239.150 187.781,238.976 187.832,239.116 188.058 C 239.476 188.640,240.462 188.512,240.462 187.884 C 240.462 187.579,240.291 187.223,240.081 187.093 C 239.855 186.953,239.804 187.127,239.956 187.523 M256.312 195.053 C 255.918 195.684,255.913 195.944,256.287 196.288 C 256.645 196.618,256.692 196.603,256.478 196.226 C 256.323 195.952,256.409 195.471,256.669 195.157 C 256.930 194.843,257.068 194.512,256.977 194.421 C 256.886 194.329,256.586 194.614,256.312 195.053 M234.546 195.677 C 234.617 195.790,234.482 196.116,234.246 196.400 C 233.953 196.753,233.947 196.917,234.227 196.917 C 234.828 196.917,235.214 196.128,234.786 195.776 C 234.583 195.609,234.475 195.564,234.546 195.677 M209.460 254.432 C 209.748 255.189,209.037 255.377,208.733 254.624 C 208.593 254.277,208.530 254.271,208.508 254.602 C 208.463 255.288,209.255 255.639,209.745 255.149 C 210.059 254.835,210.044 254.593,209.688 254.239 C 209.299 253.853,209.254 253.891,209.460 254.432 M187.165 261.518 C 186.857 261.826,187.205 262.428,187.691 262.428 C 187.891 262.428,188.054 262.168,188.054 261.850 C 188.054 261.254,187.599 261.084,187.165 261.518 M12.881 296.634 C 12.212 297.092,11.897 298.260,12.506 298.027 C 12.792 297.917,13.114 297.492,13.221 297.083 C 13.440 296.243,13.444 296.248,12.881 296.634 M251.895 348.234 C 251.427 348.702,251.628 349.112,252.216 348.887 C 252.534 348.765,252.794 348.510,252.794 348.321 C 252.794 347.917,252.263 347.865,251.895 348.234 " stroke="none" fill="#9a8d73" fill-rule="evenodd"></path><path id="path2" d="M142.453 49.197 C 141.965 49.686,142.200 50.096,142.967 50.096 C 143.391 50.096,143.738 49.928,143.738 49.723 C 143.738 49.518,143.449 49.461,143.097 49.596 C 142.666 49.761,142.547 49.694,142.734 49.391 C 143.037 48.901,142.867 48.784,142.453 49.197 M160.366 64.335 C 160.532 64.832,161.060 64.921,161.108 64.461 C 161.124 64.307,160.929 64.112,160.674 64.027 C 160.420 63.942,160.281 64.081,160.366 64.335 M168.143 65.348 C 168.011 65.693,168.215 66.234,168.616 66.600 C 169.279 67.205,169.291 67.204,168.818 66.575 C 168.541 66.207,168.415 65.643,168.538 65.323 C 168.661 65.002,168.675 64.740,168.569 64.740 C 168.463 64.740,168.272 65.013,168.143 65.348 M169.713 68.112 C 170.117 68.589,170.724 68.965,171.062 68.948 C 171.583 68.923,171.589 68.886,171.098 68.705 C 170.780 68.589,170.173 68.212,169.750 67.869 C 168.985 67.250,168.985 67.252,169.713 68.112 M175.464 73.828 C 175.322 74.198,175.587 74.766,176.136 75.273 L 177.043 76.108 176.336 75.255 C 175.947 74.786,175.731 74.136,175.856 73.810 C 175.981 73.484,175.997 73.218,175.891 73.218 C 175.785 73.218,175.593 73.492,175.464 73.828 M167.630 80.284 C 167.630 80.599,167.895 80.818,168.219 80.770 C 168.989 80.657,168.996 79.997,168.228 79.837 C 167.899 79.768,167.630 79.970,167.630 80.284 M145.761 83.685 C 146.344 83.898,146.821 84.212,146.821 84.384 C 146.821 84.556,147.124 84.802,147.495 84.932 C 147.897 85.072,147.733 84.778,147.088 84.202 C 146.494 83.671,145.713 83.251,145.354 83.267 C 144.969 83.285,145.136 83.456,145.761 83.685 M153.966 83.981 C 153.703 84.407,154.311 84.867,154.667 84.511 C 155.033 84.145,154.965 83.622,154.551 83.622 C 154.351 83.622,154.088 83.784,153.966 83.981 M152.836 91.040 C 152.990 91.305,153.650 92.205,154.304 93.039 C 154.957 93.873,155.706 95.000,155.969 95.544 L 156.447 96.532 156.204 95.577 C 155.981 94.697,153.111 90.559,152.725 90.559 C 152.632 90.559,152.682 90.776,152.836 91.040 M165.564 97.303 C 165.429 97.655,165.563 97.881,165.908 97.881 C 166.219 97.881,166.474 97.620,166.474 97.303 C 166.474 96.985,166.319 96.724,166.130 96.724 C 165.941 96.724,165.686 96.985,165.564 97.303 M185.356 105.010 C 185.356 105.328,185.530 105.588,185.742 105.588 C 185.954 105.588,186.127 105.328,186.127 105.010 C 186.127 104.692,185.954 104.432,185.742 104.432 C 185.530 104.432,185.356 104.692,185.356 105.010 M206.746 118.300 C 206.611 118.518,206.766 118.583,207.109 118.451 C 207.814 118.181,207.900 118.728,207.254 119.374 C 206.906 119.722,206.659 119.717,206.194 119.355 C 205.657 118.937,205.649 118.961,206.125 119.567 C 206.725 120.331,208.092 119.546,208.092 118.437 C 208.092 117.838,207.095 117.736,206.746 118.300 M202.444 123.177 C 202.488 123.687,202.257 123.883,201.638 123.862 C 200.761 123.831,200.482 124.246,201.116 124.638 C 201.743 125.026,203.333 123.428,202.830 122.915 C 202.490 122.569,202.398 122.631,202.444 123.177 M167.516 130.894 C 167.380 131.113,167.518 131.622,167.823 132.024 C 168.418 132.811,168.527 132.444,168.055 131.239 C 167.886 130.809,167.659 130.663,167.516 130.894 M226.975 151.062 C 226.530 151.351,226.635 151.420,227.429 151.360 C 227.996 151.317,228.376 151.145,228.273 150.978 C 228.027 150.580,227.682 150.603,226.975 151.062 M209.277 155.072 C 208.691 155.778,209.497 156.362,210.149 155.705 C 210.491 155.360,210.415 155.321,209.827 155.541 C 209.142 155.796,209.115 155.756,209.585 155.178 C 209.876 154.821,210.027 154.528,209.921 154.528 C 209.815 154.528,209.525 154.773,209.277 155.072 M200.385 178.985 C 200.385 179.590,201.888 179.894,202.319 179.375 C 202.719 178.893,202.607 178.805,201.589 178.805 C 200.927 178.805,200.385 178.886,200.385 178.985 M244.316 185.680 C 244.316 186.501,247.161 187.209,247.601 186.497 C 247.760 186.241,247.515 186.180,246.921 186.329 C 246.318 186.481,245.818 186.351,245.493 185.959 C 244.952 185.308,244.316 185.157,244.316 185.680 M256.455 195.376 C 256.108 195.936,256.591 196.539,257.345 196.487 C 257.903 196.449,257.896 196.417,257.293 196.261 C 256.880 196.154,256.677 195.855,256.800 195.535 C 257.040 194.909,256.809 194.803,256.455 195.376 M256.838 206.554 C 256.706 206.767,256.877 207.049,257.218 207.179 C 257.955 207.463,258.367 207.151,258.012 206.577 C 257.692 206.059,257.151 206.048,256.838 206.554 M251.467 213.452 C 251.349 213.644,251.626 213.703,252.083 213.584 C 252.702 213.422,252.835 213.495,252.602 213.872 C 252.393 214.209,252.439 214.285,252.741 214.098 C 252.989 213.945,253.092 213.658,252.970 213.461 C 252.686 213.002,251.749 212.996,251.467 213.452 " stroke="none" fill="#9a8d73" fill-rule="evenodd"></path><path id="path3" d="M163.006 60.886 C 163.006 61.098,163.256 61.272,163.561 61.272 C 163.866 61.272,164.224 61.098,164.355 60.886 C 164.486 60.674,164.236 60.501,163.799 60.501 C 163.363 60.501,163.006 60.674,163.006 60.886 M168.539 65.322 C 168.234 66.116,170.187 68.593,171.118 68.593 C 172.248 68.593,172.027 67.562,170.578 66.070 C 169.134 64.583,168.861 64.483,168.539 65.322 M175.903 73.690 C 175.465 74.831,177.919 77.315,178.707 76.528 C 179.043 76.191,177.949 74.315,177.270 74.066 C 176.949 73.948,176.565 73.671,176.418 73.449 C 176.251 73.200,176.055 73.291,175.903 73.690 M145.136 84.104 C 146.012 85.574,147.027 86.705,147.471 86.705 C 148.330 86.705,148.030 85.427,146.954 84.502 C 145.852 83.555,144.652 83.293,145.136 84.104 M151.927 90.832 C 151.045 91.155,151.432 91.887,153.821 94.412 C 157.361 98.155,156.318 95.097,152.620 90.896 C 152.504 90.763,152.192 90.735,151.927 90.832 M206.598 118.653 C 206.306 118.838,206.191 119.190,206.343 119.436 C 206.553 119.775,206.751 119.774,207.163 119.432 C 208.179 118.589,207.713 117.946,206.598 118.653 M201.160 123.117 C 200.773 123.582,200.806 123.737,201.331 123.939 C 202.091 124.230,202.900 123.568,202.526 122.962 C 202.170 122.387,201.724 122.437,201.160 123.117 M239.306 138.921 C 239.306 139.239,239.566 139.499,239.884 139.499 C 240.202 139.499,240.462 139.239,240.462 138.921 C 240.462 138.603,240.202 138.343,239.884 138.343 C 239.566 138.343,239.306 138.603,239.306 138.921 M227.360 151.445 C 226.905 151.726,226.886 151.896,227.267 152.277 C 227.639 152.649,227.848 152.653,228.208 152.293 C 228.833 151.668,228.133 150.967,227.360 151.445 M262.428 172.597 C 262.428 172.785,262.769 173.349,263.186 173.849 C 263.975 174.796,264.272 174.263,263.735 172.864 C 263.490 172.224,262.428 172.007,262.428 172.597 M245.768 186.192 C 246.100 186.524,246.447 186.531,247.097 186.218 C 247.923 185.820,247.896 185.792,246.647 185.768 C 245.634 185.748,245.425 185.849,245.768 186.192 M256.340 193.162 C 255.980 193.595,255.961 193.841,256.269 194.031 C 256.839 194.384,257.131 194.049,256.970 193.226 C 256.853 192.624,256.791 192.618,256.340 193.162 M256.894 195.258 C 256.460 195.692,256.630 196.146,257.225 196.146 C 257.543 196.146,257.803 195.983,257.803 195.784 C 257.803 195.298,257.202 194.950,256.894 195.258 " stroke="none" fill="#9a8d73" fill-rule="evenodd"></path><path id="path4" d="" stroke="none" fill="#9a8d73" fill-rule="evenodd"></path></g></svg>