<svg id="svg" xmlns="http://www.w3.org/2000/svg" xmlns:xlink="http://www.w3.org/1999/xlink" width="400" height="385.1063829787234" viewBox="0, 0, 400,385.1063829787234"><g id="svgg"><path id="path0" d="M181.950 4.156 C 181.916 4.640,181.599 5.479,181.245 6.019 C 180.708 6.838,180.676 7.209,181.052 8.249 C 181.300 8.935,181.503 10.627,181.503 12.010 C 181.503 14.082,181.646 14.653,182.319 15.258 C 183.621 16.430,184.946 19.898,185.383 23.275 C 185.915 27.397,185.877 28.014,184.998 29.436 C 184.149 30.810,184.791 34.727,186.521 38.735 C 187.562 41.145,187.875 51.027,186.947 52.153 C 185.889 53.436,185.582 52.954,184.954 49.027 C 184.729 47.615,184.204 45.908,183.788 45.236 C 182.789 43.619,181.964 40.807,181.653 37.958 C 181.318 34.897,180.608 33.526,179.356 33.526 C 178.423 33.526,177.745 34.079,175.784 36.439 C 174.455 38.038,174.518 42.486,175.899 44.521 C 177.050 46.218,177.455 48.093,177.085 50.022 C 176.158 54.847,176.151 54.652,177.309 55.586 C 178.137 56.253,178.340 56.682,178.181 57.435 L 177.975 58.416 176.656 57.172 C 175.931 56.488,175.338 55.613,175.340 55.228 C 175.341 54.843,174.625 52.943,173.748 51.006 C 171.526 46.097,169.888 45.157,165.868 46.485 C 162.385 47.635,162.076 49.678,165.114 51.459 C 167.070 52.605,167.775 53.904,167.226 55.348 C 166.737 56.634,167.060 57.665,168.453 59.262 C 169.688 60.679,169.945 62.782,168.979 63.584 C 167.999 64.397,168.256 67.189,169.522 69.466 C 170.885 71.921,171.810 77.669,171.064 79.062 C 170.267 80.552,170.496 84.578,171.435 85.586 C 171.886 86.070,172.269 86.736,172.287 87.067 C 172.420 89.554,173.010 97.084,173.429 101.662 C 173.890 106.694,173.877 107.272,173.287 108.272 C 172.813 109.074,172.639 110.280,172.637 112.776 C 172.636 115.046,172.443 116.554,172.059 117.289 C 171.270 118.801,171.324 119.006,172.543 119.146 C 173.499 119.256,173.615 119.435,173.725 120.971 C 173.914 123.620,173.589 124.452,172.446 124.244 C 171.761 124.120,171.484 124.241,171.484 124.663 C 171.484 125.083,171.761 125.206,172.436 125.083 C 173.260 124.934,173.443 125.103,173.783 126.328 C 174.212 127.871,174.260 157.223,173.845 164.162 L 173.603 168.208 172.543 168.136 C 171.380 168.056,170.983 169.282,172.041 169.688 C 172.481 169.857,172.626 171.024,172.731 175.221 C 172.817 178.700,173.051 180.967,173.408 181.776 C 173.888 182.866,173.872 183.323,173.272 185.635 C 172.726 187.740,172.645 189.028,172.860 192.154 C 173.158 196.478,172.279 199.229,170.600 199.229 C 169.763 199.229,169.939 201.001,170.848 201.734 C 172.945 203.424,173.035 204.816,171.291 208.591 C 170.160 211.040,169.942 211.941,169.942 214.184 C 169.942 215.655,169.674 217.618,169.346 218.545 C 169.018 219.472,168.656 221.618,168.542 223.314 C 168.428 225.010,168.089 227.051,167.790 227.850 C 167.490 228.649,167.245 229.663,167.245 230.102 C 167.245 230.542,166.868 231.431,166.409 232.077 C 165.106 233.906,166.036 236.364,168.097 236.535 C 170.200 236.709,170.982 234.842,170.370 231.110 C 169.734 227.232,169.797 226.845,171.291 225.486 C 172.033 224.811,172.640 223.919,172.640 223.503 C 172.640 222.376,175.350 220.701,176.648 221.027 C 178.742 221.552,178.904 223.315,177.269 227.795 C 176.138 230.894,176.128 230.987,176.691 233.160 C 177.006 234.376,177.264 235.829,177.264 236.388 C 177.264 238.867,179.861 237.696,180.716 234.831 C 181.274 232.963,181.306 232.244,181.055 227.305 C 180.956 225.350,181.073 224.575,181.553 224.029 C 182.958 222.429,183.445 220.887,183.207 218.796 C 183.012 217.091,183.163 216.296,184.144 213.864 C 185.120 211.442,185.369 210.140,185.654 205.964 C 185.913 202.178,186.199 200.524,186.833 199.154 C 187.292 198.159,187.669 197.238,187.669 197.107 C 187.669 196.976,188.119 195.918,188.669 194.755 C 189.676 192.626,189.789 191.310,189.499 185.071 C 189.449 183.994,189.636 183.224,190.049 182.811 C 191.484 181.376,192.450 185.187,191.573 188.825 C 190.962 191.361,191.047 196.905,191.715 198.073 C 193.101 200.499,192.274 211.592,190.567 213.479 C 189.707 214.429,189.927 216.324,190.919 216.513 C 191.329 216.590,191.867 216.376,192.116 216.037 C 192.482 215.535,192.663 216.085,193.075 218.959 C 193.490 221.858,193.491 222.529,193.082 222.666 C 191.768 223.104,191.105 224.292,191.369 225.737 C 191.872 228.495,192.161 228.902,193.610 228.902 C 195.880 228.902,196.819 226.384,195.701 223.293 C 195.345 222.307,195.375 221.686,195.853 220.183 C 196.181 219.150,196.573 217.267,196.723 215.999 C 196.872 214.731,197.307 212.824,197.689 211.760 C 198.070 210.697,198.489 209.352,198.619 208.772 C 198.781 208.051,199.335 207.472,200.365 206.947 C 201.798 206.216,201.874 206.085,201.884 204.341 C 201.890 203.331,201.905 201.985,201.917 201.349 C 201.930 200.713,201.832 198.669,201.701 196.806 C 201.411 192.708,201.647 191.271,202.919 189.397 C 203.773 188.139,203.886 187.583,203.851 184.830 C 203.794 180.444,204.296 177.958,205.535 176.485 C 206.453 175.394,206.570 174.938,206.557 172.501 C 206.489 159.492,206.552 158.093,207.322 155.682 C 207.746 154.356,208.093 152.644,208.095 151.877 C 208.096 151.109,208.262 149.476,208.463 148.246 C 208.767 146.393,208.701 145.601,208.081 143.622 C 207.168 140.710,207.148 139.838,207.937 137.182 C 208.444 135.475,208.470 134.863,208.086 133.700 C 207.758 132.706,207.729 131.781,207.988 130.566 C 208.207 129.539,208.224 127.763,208.030 126.174 C 207.831 124.552,207.857 122.385,208.096 120.644 C 208.486 117.807,208.480 117.770,207.424 116.667 L 206.358 115.554 206.227 105.850 C 206.155 100.513,206.068 93.198,206.034 89.595 C 205.978 83.524,205.907 82.920,205.069 81.349 C 204.200 79.719,204.175 79.443,204.430 74.220 C 204.695 68.800,204.693 68.783,203.705 67.437 C 201.831 64.887,201.759 64.589,202.308 61.678 C 202.902 58.531,202.409 57.284,200.395 56.842 C 197.885 56.291,197.664 52.816,200.100 52.205 C 201.051 51.966,201.224 52.088,201.831 53.429 C 202.734 55.425,204.528 57.721,205.401 57.998 C 206.171 58.243,207.565 60.286,208.423 62.428 C 208.766 63.286,208.983 65.458,209.019 68.401 C 209.070 72.635,209.153 73.130,210.002 74.273 C 210.884 75.461,210.931 75.815,210.969 81.595 C 211.001 86.545,211.131 87.897,211.670 88.902 C 212.069 89.646,212.331 90.990,212.331 92.290 C 212.331 93.475,212.607 95.777,212.943 97.406 C 213.315 99.205,213.464 101.126,213.324 102.303 C 212.971 105.256,213.011 119.352,213.380 121.965 C 213.559 123.237,213.565 125.578,213.393 127.168 C 213.221 128.757,213.097 130.535,213.119 131.118 C 213.141 131.700,213.166 134.215,213.175 136.705 C 213.184 139.196,213.201 141.753,213.213 142.389 C 213.303 147.033,213.132 153.813,212.894 155.033 C 212.713 155.963,212.795 157.065,213.117 158.040 C 213.555 159.370,213.534 159.933,212.958 162.160 C 212.577 163.634,212.320 165.897,212.360 167.437 C 212.407 169.222,212.218 170.620,211.803 171.568 C 211.458 172.356,211.175 173.983,211.175 175.183 C 211.175 176.688,210.938 177.750,210.410 178.604 L 209.645 179.843 210.584 182.241 C 211.101 183.560,211.966 184.986,212.506 185.411 C 214.368 186.876,213.319 189.045,210.962 188.603 C 209.401 188.310,209.376 188.385,209.114 194.137 C 209.014 196.343,208.733 198.344,208.480 198.648 C 208.230 198.949,208.139 199.379,208.278 199.603 C 208.416 199.827,208.648 201.434,208.793 203.174 C 209.030 206.031,209.149 206.384,210.013 206.814 C 210.539 207.075,211.169 207.562,211.412 207.894 C 211.768 208.381,211.907 208.000,212.128 205.945 C 212.386 203.528,212.346 203.333,211.382 202.327 C 210.317 201.216,210.306 200.857,211.238 197.789 C 211.612 196.559,211.633 196.549,212.723 197.113 C 214.232 197.894,214.303 197.662,214.222 192.184 C 214.178 189.232,214.317 187.122,214.590 186.613 C 215.375 185.146,215.131 182.512,214.099 181.311 C 211.975 178.839,211.837 174.726,213.822 173.025 C 215.640 171.467,216.199 170.270,216.106 168.136 C 216.041 166.622,216.295 165.651,217.279 163.651 C 218.994 160.167,218.941 157.063,217.148 156.058 C 215.624 155.204,215.600 153.214,217.094 151.440 C 218.412 149.873,218.505 146.646,217.312 143.866 C 216.181 141.230,215.926 138.657,216.718 137.865 C 217.604 136.979,217.489 135.460,216.452 134.341 C 214.900 132.666,216.165 129.094,218.310 129.094 C 219.495 129.094,219.712 127.051,219.048 122.127 C 218.046 114.697,218.009 114.145,218.426 112.949 C 219.194 110.746,217.449 101.361,216.266 101.333 C 215.770 101.321,215.903 101.059,216.805 100.273 C 218.621 98.692,218.869 95.980,217.509 92.582 C 216.051 88.935,215.989 74.755,217.428 73.846 C 218.720 73.030,224.721 78.286,227.995 83.101 C 229.208 84.884,229.525 85.112,231.134 85.353 C 233.206 85.664,236.089 87.031,237.152 88.207 C 237.556 88.654,238.561 89.202,239.385 89.424 C 240.248 89.656,241.775 90.635,242.989 91.734 C 244.154 92.790,245.469 93.642,245.933 93.642 C 247.013 93.642,252.040 96.205,252.794 97.140 C 253.112 97.535,254.615 98.461,256.135 99.198 C 258.055 100.129,259.056 100.868,259.414 101.618 C 259.840 102.512,260.209 102.718,261.562 102.816 C 262.704 102.899,263.315 103.160,263.596 103.683 C 263.890 104.233,264.406 104.432,265.543 104.432 C 266.676 104.432,267.316 104.676,267.938 105.348 C 268.405 105.851,269.914 106.838,271.291 107.541 C 272.669 108.243,274.229 109.199,274.759 109.664 C 276.087 110.830,279.592 111.801,280.806 111.340 C 281.323 111.143,282.096 110.983,282.525 110.983 C 283.385 110.983,288.247 115.436,288.247 116.223 C 288.247 117.371,292.744 118.251,300.578 118.636 C 305.846 118.894,307.060 119.216,308.269 120.676 C 308.686 121.178,309.612 121.466,311.368 121.638 C 313.958 121.891,317.638 123.423,318.960 124.797 C 319.341 125.193,320.099 125.624,320.645 125.755 C 322.145 126.114,325.241 128.630,325.241 129.490 C 325.241 129.959,325.590 130.323,326.182 130.472 C 326.755 130.616,327.170 131.033,327.242 131.539 C 327.317 132.067,327.684 132.416,328.248 132.496 C 328.762 132.569,329.285 133.015,329.491 133.556 C 329.686 134.069,330.119 134.489,330.454 134.489 C 330.788 134.489,331.243 135.010,331.464 135.645 C 331.686 136.281,332.114 136.802,332.416 136.802 C 332.718 136.802,333.162 137.235,333.403 137.765 C 333.645 138.295,334.153 138.728,334.533 138.728 C 334.913 138.728,335.536 139.178,335.916 139.728 C 337.211 141.598,337.906 142.147,339.863 142.842 C 340.975 143.237,341.912 143.833,342.036 144.225 C 342.157 144.604,342.649 145.172,343.130 145.488 C 343.611 145.803,344.211 146.749,344.463 147.591 C 344.715 148.432,345.256 149.300,345.666 149.519 C 346.182 149.795,346.489 150.511,346.667 151.851 C 346.846 153.200,347.151 153.907,347.676 154.188 C 349.366 155.092,350.644 170.331,349.241 172.853 C 348.964 173.351,348.932 173.851,349.154 174.202 C 350.276 175.975,349.158 182.361,347.657 182.753 C 347.082 182.904,346.864 183.437,346.656 185.211 C 346.307 188.181,346.101 188.825,345.498 188.825 C 345.205 188.825,344.901 189.499,344.762 190.462 C 344.362 193.232,343.733 194.990,343.142 194.990 C 342.783 194.990,342.582 195.385,342.582 196.087 C 342.582 197.318,339.941 201.675,338.968 202.048 C 338.507 202.225,338.343 202.793,338.343 204.209 C 338.343 206.455,337.745 207.986,336.743 208.304 C 336.351 208.428,336.031 208.874,336.031 209.295 C 336.031 209.798,335.636 210.197,334.875 210.462 C 334.239 210.684,333.719 211.108,333.719 211.405 C 333.719 212.311,331.115 215.630,329.556 216.710 C 327.805 217.924,326.615 220.289,327.098 221.596 C 327.533 222.772,327.060 225.211,326.237 226.034 C 325.141 227.130,326.042 227.469,328.675 226.951 C 330.768 226.539,331.198 226.563,332.293 227.153 C 334.512 228.348,336.838 227.200,335.746 225.451 C 334.557 223.548,336.190 221.514,338.435 222.101 C 339.315 222.331,341.040 221.100,341.040 220.242 C 341.040 219.174,344.135 216.725,344.366 217.609 C 344.600 218.504,345.493 219.034,346.116 218.649 C 346.624 218.335,346.133 216.459,345.441 216.069 C 344.772 215.692,344.723 214.023,345.362 213.339 C 345.742 212.932,346.012 213.007,346.803 213.741 C 348.075 214.920,349.899 214.919,351.319 213.737 C 351.918 213.239,352.792 212.629,353.261 212.383 C 353.781 212.109,354.028 211.711,353.894 211.361 C 353.773 211.046,353.785 210.348,353.920 209.810 C 354.198 208.702,355.088 209.207,355.357 210.625 C 355.788 212.897,361.462 209.918,362.799 206.718 C 363.103 205.990,363.589 205.395,363.880 205.395 C 366.374 205.395,368.401 204.193,368.401 202.714 C 368.401 200.507,368.646 200.141,371.138 198.627 C 372.388 197.868,373.409 197.216,373.406 197.178 C 373.404 197.141,373.144 196.259,372.828 195.218 C 371.850 191.994,372.049 190.604,373.805 188.382 C 375.104 186.738,375.318 186.224,375.127 185.204 C 374.917 184.087,375.031 183.913,376.511 183.081 L 378.123 182.175 377.876 179.994 C 377.643 177.935,377.693 177.751,378.762 176.728 C 379.740 175.791,379.844 175.500,379.527 174.592 C 379.294 173.923,379.296 173.184,379.532 172.563 C 379.778 171.916,379.762 171.082,379.483 170.090 C 379.252 169.267,379.111 167.726,379.169 166.667 C 379.552 159.734,378.784 151.286,377.537 148.709 C 376.680 146.939,376.536 146.234,376.734 144.787 C 377.114 142.011,376.749 141.194,374.857 140.596 C 373.336 140.115,373.218 139.979,373.218 138.718 C 373.218 137.970,372.914 136.893,372.543 136.323 C 372.091 135.628,371.869 134.525,371.869 132.971 C 371.869 130.418,370.975 129.487,368.516 129.475 C 366.110 129.463,365.554 129.071,366.951 128.374 C 368.899 127.401,368.620 126.417,366.170 125.619 C 363.810 124.849,363.988 124.989,363.512 123.520 C 363.140 122.367,360.734 120.326,358.574 119.329 C 356.861 118.539,356.170 117.572,355.511 115.042 C 355.185 113.790,354.763 112.667,354.573 112.548 C 354.383 112.429,354.007 111.593,353.738 110.691 C 353.306 109.243,353.063 108.997,351.672 108.602 C 350.805 108.356,349.738 107.837,349.301 107.449 C 348.314 106.574,347.818 106.567,346.397 107.406 C 344.619 108.456,343.387 107.069,344.018 104.725 C 344.775 101.916,342.463 99.926,340.602 101.787 L 339.767 102.622 339.023 101.600 C 338.391 100.732,337.991 100.578,336.372 100.578 C 333.653 100.578,331.986 99.768,331.077 98.006 C 329.567 95.081,327.461 93.498,325.032 93.461 C 323.714 93.440,322.767 93.234,322.576 92.924 C 322.346 92.551,322.210 92.629,322.055 93.224 C 321.803 94.188,320.543 94.289,319.808 93.403 C 319.362 92.865,319.434 92.665,320.339 91.944 C 321.679 90.875,321.657 90.576,320.135 89.157 C 317.602 86.795,314.134 86.663,312.827 88.878 C 312.407 89.591,311.998 90.173,311.918 90.173 C 311.158 90.173,308.233 88.304,308.040 87.695 C 307.433 85.784,305.487 84.015,303.307 83.391 C 302.124 83.052,300.180 82.272,298.988 81.657 C 297.293 80.784,296.307 80.539,294.473 80.539 C 292.578 80.539,292.053 80.401,291.742 79.820 C 291.483 79.335,290.739 79.019,289.459 78.849 C 288.402 78.709,286.906 78.153,286.081 77.593 C 285.267 77.041,283.935 76.500,283.122 76.390 C 282.135 76.258,281.444 75.889,281.047 75.283 C 280.719 74.783,280.217 74.374,279.931 74.374 C 279.645 74.374,279.225 74.027,278.998 73.603 C 278.771 73.179,278.276 72.832,277.898 72.832 C 276.233 72.832,273.301 71.653,273.106 70.904 C 272.951 70.312,272.579 70.135,271.494 70.135 C 269.828 70.135,268.593 69.558,268.593 68.780 C 268.593 68.473,268.117 68.126,267.534 68.008 C 266.951 67.890,265.833 67.453,265.049 67.037 C 264.265 66.622,263.000 66.281,262.238 66.281 C 261.285 66.281,260.560 65.990,259.918 65.348 C 259.404 64.834,258.667 64.314,258.280 64.191 C 257.892 64.068,256.506 62.927,255.199 61.656 C 253.892 60.385,252.590 59.345,252.305 59.345 C 251.499 59.345,246.278 55.720,244.782 54.122 C 244.297 53.604,243.539 53.179,243.098 53.179 C 241.678 53.179,239.049 51.164,238.191 49.417 C 237.317 47.636,236.881 47.374,231.792 45.575 C 229.307 44.697,228.561 44.243,227.939 43.233 C 227.151 41.953,223.441 37.112,222.714 36.416 C 221.412 35.168,220.688 34.635,219.380 33.960 C 218.577 33.545,217.234 32.498,216.396 31.632 C 215.558 30.766,214.659 30.058,214.398 30.058 C 214.137 30.058,213.115 29.028,212.127 27.770 C 211.138 26.512,209.870 25.316,209.307 25.111 C 208.745 24.907,207.158 23.760,205.780 22.563 C 204.403 21.366,201.823 19.669,200.048 18.792 C 197.636 17.601,196.704 16.922,196.361 16.106 C 196.024 15.307,195.160 14.659,193.132 13.687 C 191.295 12.807,190.213 12.031,189.917 11.382 C 189.672 10.845,189.154 10.405,188.766 10.405 C 188.378 10.405,187.844 10.058,187.579 9.634 C 187.314 9.210,186.897 8.863,186.651 8.863 C 186.405 8.863,185.855 8.274,185.430 7.553 C 184.922 6.692,184.256 6.155,183.488 5.986 C 182.533 5.776,182.290 5.504,182.165 4.502 C 182.065 3.706,181.990 3.584,181.950 4.156 M213.086 68.516 C 214.913 69.414,215.709 72.866,214.467 74.504 C 213.978 75.150,213.906 75.050,213.654 73.373 C 213.385 71.573,212.602 70.453,210.963 69.517 C 209.165 68.490,211.142 67.559,213.086 68.516 M320.791 100.640 C 321.331 100.886,321.773 101.396,321.773 101.773 C 321.773 102.151,321.946 102.567,322.158 102.697 C 322.910 103.162,322.527 103.661,321.419 103.661 C 320.098 103.661,317.925 102.523,317.922 101.830 C 317.920 101.566,317.909 101.219,317.896 101.060 C 317.884 100.901,318.274 100.658,318.763 100.520 C 319.253 100.382,319.688 100.252,319.731 100.231 C 319.774 100.210,320.251 100.394,320.791 100.640 M337.649 112.216 C 337.290 112.575,337.084 112.575,336.724 112.216 C 336.365 111.856,336.468 111.753,337.187 111.753 C 337.906 111.753,338.009 111.856,337.649 112.216 M197.688 191.737 C 197.688 192.439,197.493 193.502,197.254 194.098 L 196.820 195.183 196.472 194.027 C 195.949 192.289,196.424 189.412,197.137 190.003 C 197.440 190.255,197.688 191.035,197.688 191.737 M195.501 205.454 C 196.086 206.382,195.070 210.540,194.418 209.888 C 193.601 209.071,193.064 207.787,193.064 206.653 C 193.064 204.757,194.590 204.006,195.501 205.454 M204.857 218.208 C 204.787 218.473,204.548 219.383,204.326 220.231 C 204.104 221.079,203.677 222.425,203.377 223.222 C 202.539 225.451,202.904 226.975,204.274 226.975 C 205.984 226.975,206.708 225.564,206.403 222.825 C 206.267 221.610,206.316 220.066,206.512 219.392 C 206.791 218.429,206.744 218.120,206.292 217.947 C 205.407 217.607,204.997 217.682,204.857 218.208 M322.001 224.130 C 321.862 224.494,321.915 224.959,322.119 225.164 C 322.676 225.721,323.775 225.149,323.627 224.379 C 323.453 223.478,322.318 223.304,322.001 224.130 M202.761 230.336 C 202.563 230.713,202.275 231.950,202.122 233.086 C 201.598 236.963,197.768 238.245,196.155 235.084 C 194.647 232.128,189.084 230.039,188.036 232.035 C 187.773 232.537,186.998 233.574,186.315 234.338 C 185.631 235.103,185.006 235.884,184.925 236.073 C 184.337 237.451,182.077 238.594,180.428 238.346 C 179.098 238.147,178.760 238.203,178.898 238.602 C 178.995 238.883,178.581 239.993,177.979 241.068 C 177.376 242.143,176.770 243.847,176.632 244.855 C 176.493 245.862,175.940 247.324,175.402 248.103 C 174.864 248.881,174.326 250.212,174.206 251.060 C 173.993 252.572,173.954 252.605,172.166 252.811 C 170.910 252.955,170.010 253.340,169.271 254.048 C 168.645 254.647,167.399 255.250,166.276 255.496 C 164.180 255.955,163.247 256.587,161.946 258.429 C 161.214 259.465,160.810 259.657,159.049 259.803 C 157.779 259.908,156.569 260.289,155.861 260.805 C 155.023 261.416,153.596 261.782,150.475 262.185 C 147.531 262.565,145.782 262.997,144.770 263.595 C 143.385 264.412,143.156 264.433,140.344 263.999 C 138.714 263.747,136.916 263.471,136.349 263.385 C 135.782 263.300,134.332 263.390,133.126 263.586 C 131.431 263.862,130.627 263.815,129.582 263.378 C 127.926 262.686,126.707 262.657,126.068 263.295 C 125.730 263.633,124.029 263.776,120.373 263.776 C 114.955 263.776,114.539 263.898,113.951 265.662 C 113.859 265.936,112.423 266.089,109.923 266.089 C 106.499 266.089,105.900 266.191,104.865 266.956 C 104.220 267.433,103.581 267.823,103.446 267.823 C 102.934 267.823,100.331 269.177,98.971 270.151 C 98.193 270.707,96.719 271.470,95.695 271.846 C 94.672 272.222,93.574 272.823,93.256 273.181 C 92.938 273.539,92.107 274.170,91.409 274.582 C 90.711 274.994,89.821 275.870,89.432 276.529 C 89.026 277.218,87.949 278.104,86.900 278.611 C 84.305 279.868,81.687 281.693,79.571 283.721 C 78.565 284.684,77.268 285.568,76.688 285.684 C 76.052 285.811,74.313 287.203,72.308 289.190 C 70.479 291.003,68.884 292.486,68.763 292.486 C 64.849 292.486,63.283 295.680,63.878 302.448 C 64.374 308.089,64.214 309.651,63.005 310.983 C 62.524 311.513,61.859 312.485,61.527 313.144 C 60.977 314.235,60.187 314.740,57.996 315.403 C 56.267 315.926,53.565 320.463,53.558 322.855 C 53.552 324.646,53.340 325.359,52.401 326.744 C 51.769 327.677,51.252 328.604,51.252 328.804 C 51.252 329.004,50.904 329.658,50.478 330.256 C 48.840 332.556,48.773 336.374,50.303 340.077 C 50.566 340.713,50.905 341.642,51.056 342.143 C 51.208 342.643,51.964 343.745,52.737 344.592 C 53.510 345.438,54.576 347.190,55.106 348.484 C 56.016 350.706,56.208 350.907,58.574 352.098 C 59.952 352.792,61.537 353.896,62.097 354.553 C 62.720 355.284,63.214 355.585,63.372 355.330 C 64.260 353.893,69.410 357.580,70.493 360.430 C 70.711 361.004,71.370 361.664,71.958 361.895 C 72.545 362.127,73.979 362.725,75.145 363.223 C 76.310 363.721,77.871 364.246,78.613 364.390 C 79.355 364.533,80.174 364.954,80.434 365.325 C 80.693 365.696,81.500 366.111,82.225 366.247 C 82.951 366.383,83.952 366.814,84.450 367.205 C 84.949 367.595,85.926 368.039,86.622 368.191 C 87.341 368.348,88.234 368.936,88.689 369.551 C 89.340 370.431,89.897 370.686,91.655 370.906 C 92.846 371.054,94.431 371.420,95.176 371.717 C 95.922 372.015,98.353 372.409,100.578 372.593 C 104.476 372.915,105.781 373.245,107.224 374.274 C 107.767 374.661,108.065 374.647,108.766 374.203 C 109.285 373.874,110.796 373.624,112.524 373.582 C 114.114 373.543,117.731 373.294,120.564 373.028 C 124.656 372.645,126.282 372.643,128.488 373.020 C 131.901 373.604,135.060 373.078,136.576 371.673 C 137.851 370.492,139.593 370.171,141.912 370.691 C 144.049 371.171,148.787 370.403,151.060 369.208 C 151.911 368.761,153.676 368.407,155.843 368.250 C 158.352 368.068,159.634 367.781,160.603 367.182 C 161.850 366.411,162.152 366.385,165.644 366.757 C 169.969 367.218,172.111 366.827,174.559 365.131 C 175.910 364.194,176.356 364.084,178.004 364.279 C 180.174 364.536,182.503 364.013,183.622 363.016 C 184.046 362.639,185.026 362.218,185.799 362.080 C 186.573 361.942,187.421 361.570,187.684 361.253 C 187.947 360.937,188.903 360.491,189.810 360.263 C 190.717 360.034,191.850 359.431,192.328 358.922 C 192.807 358.413,193.501 357.996,193.872 357.996 C 194.243 357.996,195.081 357.546,195.736 356.995 C 196.390 356.445,197.901 355.739,199.094 355.428 C 201.896 354.696,203.692 353.246,204.505 351.060 C 204.859 350.106,205.382 349.066,205.666 348.748 C 205.951 348.430,206.656 347.555,207.234 346.804 C 208.454 345.219,213.777 340.270,214.263 340.270 C 214.444 340.270,214.695 339.944,214.821 339.547 C 215.148 338.518,219.380 334.458,220.709 333.899 C 221.322 333.641,222.418 332.671,223.143 331.744 C 223.868 330.817,225.071 329.393,225.815 328.581 C 227.484 326.759,228.064 325.255,228.102 322.649 C 228.121 321.358,228.407 320.182,228.900 319.373 C 229.323 318.680,229.670 317.516,229.671 316.788 C 229.673 314.928,231.116 312.153,232.468 311.412 C 233.092 311.070,234.450 310.127,235.485 309.317 L 237.367 307.844 236.636 306.412 C 236.017 305.198,235.561 304.870,233.656 304.271 C 227.169 302.229,225.411 298.148,230.962 298.022 C 233.622 297.961,234.902 297.373,235.375 295.995 C 236.657 292.263,231.248 290.688,229.513 294.288 C 228.779 295.811,228.669 295.878,226.610 296.064 C 224.398 296.264,222.454 295.566,222.956 294.754 C 223.605 293.703,223.142 290.045,222.235 289.053 C 221.343 288.079,219.353 284.877,218.799 283.526 C 218.392 282.535,217.846 282.704,217.551 283.911 C 217.409 284.494,216.822 285.578,216.246 286.320 C 215.670 287.062,214.883 288.166,214.497 288.775 C 213.812 289.853,213.777 289.863,213.093 289.160 C 211.725 287.753,212.157 283.148,213.843 281.181 C 216.139 278.501,218.273 274.223,218.673 271.498 C 218.991 269.335,219.944 266.724,220.693 265.965 C 221.437 265.209,221.380 260.501,220.626 260.501 C 219.683 260.501,218.882 258.392,218.882 255.909 C 218.882 254.041,218.743 253.517,218.163 253.207 C 217.723 252.971,217.344 252.198,217.187 251.217 C 217.017 250.152,216.545 249.252,215.787 248.543 C 215.158 247.956,214.644 247.149,214.644 246.751 C 214.644 246.353,214.030 245.448,213.279 244.740 C 211.861 243.402,210.405 240.941,210.405 239.881 C 210.405 239.545,209.995 238.888,209.495 238.421 C 208.995 237.954,208.012 236.532,207.311 235.260 C 206.610 233.988,205.545 232.545,204.945 232.053 C 204.345 231.561,203.854 230.921,203.854 230.631 C 203.854 229.781,203.153 229.592,202.761 230.336 M172.666 237.716 C 172.062 238.845,172.164 239.960,172.897 240.241 C 173.821 240.596,174.256 239.979,174.113 238.518 C 173.967 237.023,173.249 236.626,172.666 237.716 M165.309 239.508 C 162.549 242.355,163.380 248.940,166.499 248.940 C 169.217 248.940,170.071 247.616,170.192 243.211 C 170.335 238.013,168.274 236.450,165.309 239.508 M301.638 240.573 C 300.843 241.254,300.193 242.106,300.193 242.466 C 300.193 242.827,299.889 243.298,299.518 243.514 C 298.960 243.840,299.059 243.909,300.096 243.919 C 300.785 243.925,301.349 243.737,301.349 243.500 C 301.349 243.263,301.869 242.476,302.505 241.752 C 304.572 239.398,303.968 238.577,301.638 240.573 M170.769 249.676 C 170.352 249.934,170.341 250.171,170.711 250.863 C 171.137 251.659,171.223 251.678,171.796 251.105 C 172.563 250.338,171.682 249.112,170.769 249.676 M285.934 270.520 C 285.934 271.156,286.108 271.676,286.320 271.676 C 286.532 271.676,286.705 271.156,286.705 270.520 C 286.705 269.884,286.532 269.364,286.320 269.364 C 286.108 269.364,285.934 269.884,285.934 270.520 " stroke="none" fill="#9a8b74" fill-rule="evenodd"></path><path id="path1" d="M177.649 9.634 L 177.649 15.800 178.805 15.800 C 179.950 15.800,179.961 15.821,179.961 17.919 C 179.961 19.923,180.014 20.039,180.925 20.039 L 181.888 20.039 181.888 24.470 L 181.888 28.902 180.950 28.902 C 180.214 28.902,179.986 28.674,179.891 27.842 C 179.769 26.784,179.763 26.782,176.686 26.782 L 173.603 26.782 173.494 31.118 C 173.385 35.440,173.382 35.453,172.434 35.453 L 171.484 35.453 171.422 39.788 C 171.388 42.172,171.290 43.560,171.205 42.871 L 171.049 41.618 167.028 41.618 L 163.006 41.618 163.006 42.775 C 163.006 43.802,162.877 43.931,161.850 43.931 L 160.694 43.931 160.694 49.133 L 160.694 54.335 161.850 54.335 L 163.006 54.335 163.006 57.418 C 163.006 60.450,163.022 60.501,163.969 60.501 L 164.933 60.501 164.978 65.414 C 165.003 68.117,165.002 70.462,164.975 70.626 C 164.948 70.790,165.448 71.028,166.086 71.155 L 167.245 71.387 167.245 78.854 C 167.245 82.960,167.375 86.299,167.534 86.274 C 169.205 86.010,169.171 85.831,169.171 95.152 C 169.171 104.843,169.221 105.202,170.561 105.202 C 171.329 105.202,171.484 105.396,171.484 106.358 C 171.484 107.215,171.304 107.514,170.790 107.514 C 169.405 107.514,169.171 108.297,169.171 112.939 C 169.171 117.667,169.464 118.527,170.974 118.237 C 172.130 118.014,172.628 116.376,172.634 112.776 C 172.638 110.284,172.814 109.073,173.287 108.272 C 173.877 107.272,173.890 106.694,173.429 101.662 C 173.010 97.084,172.420 89.554,172.287 87.067 C 172.269 86.736,171.886 86.070,171.435 85.586 C 170.496 84.578,170.267 80.552,171.064 79.062 C 171.810 77.669,170.885 71.921,169.522 69.466 C 168.256 67.189,167.999 64.397,168.979 63.584 C 169.945 62.782,169.688 60.679,168.453 59.262 C 167.060 57.665,166.737 56.634,167.226 55.348 C 167.775 53.904,167.070 52.605,165.114 51.459 C 162.076 49.678,162.385 47.635,165.868 46.485 C 169.888 45.157,171.526 46.097,173.748 51.006 C 174.625 52.943,175.341 54.843,175.340 55.228 C 175.338 55.613,175.931 56.488,176.656 57.172 L 177.975 58.416 178.181 57.435 C 178.340 56.682,178.137 56.253,177.309 55.586 C 176.151 54.652,176.158 54.847,177.085 50.022 C 177.455 48.093,177.050 46.218,175.899 44.521 C 174.518 42.486,174.455 38.038,175.784 36.439 C 177.745 34.079,178.423 33.526,179.356 33.526 C 180.608 33.526,181.318 34.897,181.653 37.958 C 181.964 40.807,182.789 43.619,183.788 45.236 C 184.204 45.908,184.729 47.615,184.954 49.027 C 185.582 52.954,185.889 53.436,186.947 52.153 C 187.875 51.027,187.562 41.145,186.521 38.735 C 184.791 34.727,184.149 30.810,184.998 29.436 C 186.655 26.756,184.925 17.604,182.319 15.258 C 181.646 14.653,181.503 14.082,181.503 12.010 C 181.503 10.627,181.300 8.935,181.052 8.249 C 180.676 7.209,180.708 6.838,181.245 6.019 C 182.509 4.089,182.150 3.468,179.769 3.468 L 177.649 3.468 177.649 9.634 M182.274 4.594 C 182.274 5.538,182.465 5.761,183.465 5.981 C 184.258 6.155,184.916 6.682,185.430 7.553 C 185.855 8.274,186.405 8.863,186.651 8.863 C 186.897 8.863,187.314 9.210,187.579 9.634 C 187.844 10.058,188.378 10.405,188.766 10.405 C 189.154 10.405,189.672 10.845,189.917 11.382 C 190.213 12.031,191.295 12.807,193.132 13.687 C 195.160 14.659,196.024 15.307,196.361 16.106 C 196.704 16.922,197.636 17.601,200.048 18.792 C 201.823 19.669,204.403 21.366,205.780 22.563 C 207.158 23.760,208.745 24.907,209.307 25.111 C 209.870 25.316,211.138 26.512,212.127 27.770 C 213.115 29.028,214.137 30.058,214.398 30.058 C 214.659 30.058,215.558 30.766,216.396 31.632 C 217.234 32.498,218.577 33.545,219.380 33.960 C 220.637 34.609,221.357 35.145,222.830 36.532 C 223.446 37.111,227.209 42.048,227.939 43.233 C 228.561 44.243,229.307 44.697,231.792 45.575 C 236.881 47.374,237.317 47.636,238.191 49.417 C 239.049 51.164,241.678 53.179,243.098 53.179 C 243.539 53.179,244.297 53.604,244.782 54.122 C 246.278 55.720,251.499 59.345,252.305 59.345 C 252.590 59.345,253.892 60.385,255.199 61.656 C 256.506 62.927,257.892 64.068,258.280 64.191 C 258.667 64.314,259.404 64.834,259.918 65.348 C 260.560 65.990,261.285 66.281,262.238 66.281 C 263.000 66.281,264.265 66.622,265.049 67.037 C 265.833 67.453,266.951 67.890,267.534 68.008 C 268.117 68.126,268.593 68.473,268.593 68.780 C 268.593 69.558,269.828 70.135,271.494 70.135 C 272.579 70.135,272.951 70.312,273.106 70.904 C 273.301 71.653,276.233 72.832,277.898 72.832 C 278.276 72.832,278.771 73.179,278.998 73.603 C 279.225 74.027,279.645 74.374,279.931 74.374 C 280.217 74.374,280.719 74.783,281.047 75.283 C 281.444 75.889,282.135 76.258,283.122 76.390 C 283.935 76.500,285.267 77.041,286.081 77.593 C 286.906 78.153,288.402 78.709,289.459 78.849 C 290.739 79.019,291.483 79.335,291.742 79.820 C 292.053 80.401,292.578 80.539,294.473 80.539 C 296.307 80.539,297.293 80.784,298.988 81.657 C 300.180 82.272,302.124 83.052,303.307 83.391 C 305.487 84.015,307.433 85.784,308.040 87.695 C 308.233 88.304,311.158 90.173,311.918 90.173 C 311.998 90.173,312.407 89.591,312.827 88.878 C 314.134 86.663,317.602 86.795,320.135 89.157 C 321.657 90.576,321.679 90.875,320.339 91.944 C 319.434 92.665,319.362 92.865,319.808 93.403 C 320.543 94.289,321.803 94.188,322.055 93.224 C 322.210 92.629,322.346 92.551,322.576 92.924 C 322.767 93.234,323.714 93.440,325.032 93.461 C 327.461 93.498,329.567 95.081,331.077 98.006 C 331.986 99.768,333.653 100.578,336.372 100.578 C 337.991 100.578,338.391 100.732,339.023 101.600 L 339.767 102.622 340.602 101.787 C 342.463 99.926,344.775 101.916,344.018 104.725 C 343.387 107.069,344.619 108.456,346.397 107.406 C 347.818 106.567,348.314 106.574,349.301 107.449 C 349.738 107.837,350.805 108.356,351.672 108.602 C 353.063 108.997,353.306 109.243,353.738 110.691 C 354.007 111.593,354.383 112.429,354.573 112.548 C 354.763 112.667,355.185 113.790,355.511 115.042 C 356.170 117.572,356.861 118.539,358.574 119.329 C 360.734 120.326,363.140 122.367,363.512 123.520 C 363.988 124.989,363.810 124.849,366.170 125.619 C 368.620 126.417,368.899 127.401,366.951 128.374 C 365.554 129.071,366.110 129.463,368.516 129.475 C 370.975 129.487,371.869 130.418,371.869 132.971 C 371.869 134.525,372.091 135.628,372.543 136.323 C 372.914 136.893,373.218 137.970,373.218 138.718 C 373.218 139.979,373.336 140.115,374.857 140.596 C 376.749 141.194,377.114 142.011,376.734 144.787 C 376.536 146.234,376.680 146.939,377.537 148.709 C 378.784 151.286,379.552 159.734,379.169 166.667 C 379.111 167.726,379.250 169.260,379.480 170.074 C 379.754 171.050,379.771 171.915,379.528 172.611 C 379.294 173.285,379.295 174.021,379.534 174.648 C 379.853 175.488,379.743 175.788,378.768 176.721 C 377.692 177.752,377.643 177.933,377.876 179.994 L 378.123 182.175 376.511 183.081 C 375.031 183.913,374.917 184.087,375.127 185.204 C 375.318 186.224,375.104 186.738,373.805 188.382 C 372.049 190.604,371.850 191.994,372.828 195.218 C 373.144 196.259,373.404 197.141,373.406 197.178 C 373.409 197.216,372.388 197.868,371.138 198.627 C 368.646 200.141,368.401 200.507,368.401 202.714 C 368.401 204.193,366.374 205.395,363.880 205.395 C 363.589 205.395,363.103 205.990,362.799 206.718 C 361.462 209.918,355.788 212.897,355.357 210.625 C 355.088 209.207,354.198 208.702,353.920 209.810 C 353.785 210.348,353.773 211.046,353.894 211.361 C 354.028 211.711,353.781 212.109,353.261 212.383 C 352.792 212.629,351.918 213.239,351.319 213.737 C 349.899 214.919,348.075 214.920,346.803 213.741 C 346.012 213.007,345.742 212.932,345.362 213.339 C 344.723 214.023,344.772 215.692,345.441 216.069 C 346.133 216.459,346.624 218.335,346.116 218.649 C 345.493 219.034,344.600 218.504,344.366 217.609 C 344.135 216.725,341.040 219.174,341.040 220.242 C 341.040 221.100,339.315 222.331,338.435 222.101 C 336.190 221.514,334.557 223.548,335.746 225.451 C 336.838 227.200,334.512 228.348,332.293 227.153 C 331.198 226.563,330.768 226.539,328.675 226.951 C 326.042 227.469,325.141 227.130,326.237 226.034 C 327.060 225.211,327.533 222.772,327.098 221.596 C 326.615 220.289,327.805 217.924,329.556 216.710 C 331.115 215.630,333.719 212.311,333.719 211.405 C 333.719 211.108,334.239 210.684,334.875 210.462 C 335.636 210.197,336.031 209.798,336.031 209.295 C 336.031 208.874,336.351 208.428,336.743 208.304 C 337.745 207.986,338.343 206.455,338.343 204.209 C 338.343 202.793,338.507 202.225,338.968 202.048 C 339.941 201.675,342.582 197.318,342.582 196.087 C 342.582 195.385,342.783 194.990,343.142 194.990 C 343.733 194.990,344.362 193.232,344.762 190.462 C 344.901 189.499,345.205 188.825,345.498 188.825 C 346.101 188.825,346.307 188.181,346.656 185.211 C 346.864 183.437,347.082 182.904,347.657 182.753 C 349.158 182.361,350.276 175.975,349.154 174.202 C 348.932 173.851,348.964 173.351,349.241 172.853 C 350.644 170.331,349.366 155.092,347.676 154.188 C 347.151 153.907,346.846 153.200,346.667 151.851 C 346.489 150.511,346.182 149.795,345.666 149.519 C 345.256 149.300,344.715 148.432,344.463 147.591 C 344.211 146.749,343.611 145.803,343.130 145.488 C 342.649 145.172,342.157 144.604,342.036 144.225 C 341.912 143.833,340.975 143.237,339.863 142.842 C 337.906 142.147,337.211 141.598,335.916 139.728 C 335.536 139.178,334.913 138.728,334.533 138.728 C 334.153 138.728,333.645 138.295,333.403 137.765 C 333.162 137.235,332.718 136.802,332.416 136.802 C 332.114 136.802,331.686 136.281,331.464 135.645 C 331.243 135.010,330.788 134.489,330.454 134.489 C 330.119 134.489,329.686 134.069,329.491 133.556 C 329.285 133.015,328.762 132.569,328.248 132.496 C 327.684 132.416,327.317 132.067,327.242 131.539 C 327.170 131.033,326.755 130.616,326.182 130.472 C 325.590 130.323,325.241 129.959,325.241 129.490 C 325.241 128.630,322.145 126.114,320.645 125.755 C 320.099 125.624,319.341 125.193,318.960 124.797 C 317.638 123.423,313.958 121.891,311.368 121.638 C 309.612 121.466,308.686 121.178,308.269 120.676 C 307.060 119.216,305.846 118.894,300.578 118.636 C 292.744 118.251,288.247 117.371,288.247 116.223 C 288.247 115.436,283.385 110.983,282.525 110.983 C 282.096 110.983,281.323 111.143,280.806 111.340 C 279.592 111.801,276.087 110.830,274.759 109.664 C 274.229 109.199,272.669 108.243,271.291 107.541 C 269.914 106.838,268.405 105.851,267.938 105.348 C 267.316 104.676,266.676 104.432,265.543 104.432 C 264.406 104.432,263.890 104.233,263.596 103.683 C 263.315 103.160,262.704 102.899,261.562 102.816 C 260.209 102.718,259.840 102.512,259.414 101.618 C 259.056 100.868,258.055 100.129,256.135 99.198 C 254.615 98.461,253.112 97.535,252.794 97.140 C 252.040 96.205,247.013 93.642,245.933 93.642 C 245.469 93.642,244.154 92.790,242.989 91.734 C 241.775 90.635,240.248 89.656,239.385 89.424 C 238.561 89.202,237.556 88.654,237.152 88.207 C 236.089 87.031,233.206 85.664,231.134 85.353 C 229.525 85.112,229.208 84.884,227.995 83.101 C 224.721 78.286,218.720 73.030,217.428 73.846 C 215.989 74.755,216.051 88.935,217.509 92.582 C 218.869 95.980,218.621 98.692,216.805 100.273 C 215.903 101.059,215.770 101.321,216.266 101.333 C 217.449 101.361,219.194 110.746,218.426 112.949 C 218.009 114.145,218.046 114.697,219.048 122.127 C 219.712 127.051,219.495 129.094,218.310 129.094 C 216.165 129.094,214.900 132.666,216.452 134.341 C 217.489 135.460,217.604 136.979,216.718 137.865 C 215.926 138.657,216.181 141.230,217.312 143.866 C 218.505 146.646,218.412 149.873,217.094 151.440 C 215.600 153.214,215.624 155.204,217.148 156.058 C 218.941 157.063,218.994 160.167,217.279 163.651 C 216.295 165.651,216.041 166.622,216.106 168.136 C 216.199 170.270,215.640 171.467,213.822 173.025 C 211.837 174.726,211.975 178.839,214.099 181.311 C 215.131 182.512,215.375 185.146,214.590 186.613 C 214.317 187.122,214.178 189.232,214.222 192.184 C 214.303 197.662,214.232 197.894,212.723 197.113 C 211.633 196.549,211.612 196.559,211.238 197.789 C 210.306 200.857,210.317 201.216,211.382 202.327 C 212.346 203.333,212.386 203.528,212.128 205.945 C 211.907 208.000,211.768 208.381,211.412 207.894 C 211.169 207.562,210.539 207.075,210.013 206.814 C 209.149 206.384,209.030 206.031,208.793 203.174 C 208.648 201.434,208.416 199.827,208.278 199.603 C 208.139 199.379,208.230 198.949,208.480 198.648 C 208.733 198.344,209.014 196.343,209.114 194.137 C 209.376 188.385,209.401 188.310,210.962 188.603 C 213.319 189.045,214.368 186.876,212.506 185.411 C 211.966 184.986,211.101 183.560,210.584 182.241 L 209.645 179.843 210.410 178.604 C 210.938 177.750,211.175 176.688,211.175 175.183 C 211.175 173.983,211.458 172.356,211.803 171.568 C 212.218 170.620,212.407 169.222,212.360 167.437 C 212.320 165.897,212.577 163.634,212.958 162.160 C 213.534 159.933,213.555 159.370,213.117 158.040 C 212.795 157.065,212.713 155.963,212.894 155.033 C 213.132 153.813,213.303 147.033,213.213 142.389 C 213.201 141.753,213.184 139.196,213.175 136.705 C 213.166 134.215,213.141 131.700,213.119 131.118 C 213.097 130.535,213.221 128.757,213.393 127.168 C 213.565 125.578,213.559 123.237,213.380 121.965 C 213.011 119.352,212.971 105.256,213.324 102.303 C 213.464 101.126,213.315 99.205,212.943 97.406 C 212.607 95.777,212.331 93.475,212.331 92.290 C 212.331 90.990,212.069 89.646,211.670 88.902 C 211.131 87.897,211.001 86.545,210.969 81.595 C 210.931 75.815,210.884 75.461,210.002 74.273 C 209.153 73.130,209.070 72.635,209.019 68.401 C 208.983 65.458,208.766 63.286,208.423 62.428 C 207.565 60.286,206.171 58.243,205.401 57.998 C 204.528 57.721,202.734 55.425,201.831 53.429 C 201.224 52.088,201.051 51.966,200.100 52.205 C 197.664 52.816,197.885 56.291,200.395 56.842 C 202.409 57.284,202.902 58.531,202.308 61.678 C 201.759 64.589,201.831 64.887,203.705 67.437 C 204.693 68.783,204.695 68.800,204.430 74.220 C 204.175 79.443,204.200 79.719,205.069 81.349 C 205.907 82.920,205.978 83.524,206.034 89.595 C 206.068 93.198,206.155 100.513,206.227 105.850 L 206.358 115.554 207.424 116.667 C 208.480 117.770,208.486 117.807,208.096 120.644 C 207.857 122.385,207.831 124.552,208.030 126.174 C 208.224 127.763,208.207 129.539,207.988 130.566 C 207.729 131.781,207.758 132.706,208.086 133.700 C 208.470 134.863,208.444 135.475,207.937 137.182 C 207.148 139.838,207.168 140.710,208.081 143.622 C 208.701 145.601,208.767 146.393,208.463 148.246 C 208.262 149.476,208.096 151.109,208.095 151.877 C 208.093 152.644,207.746 154.356,207.322 155.682 C 206.552 158.093,206.489 159.492,206.557 172.501 C 206.570 174.938,206.453 175.394,205.535 176.485 C 204.296 177.958,203.794 180.444,203.851 184.830 C 203.886 187.583,203.773 188.139,202.919 189.397 C 201.647 191.271,201.411 192.708,201.701 196.806 C 201.832 198.669,201.930 200.713,201.917 201.349 C 201.905 201.985,201.890 203.331,201.884 204.341 C 201.874 206.085,201.798 206.216,200.365 206.947 C 199.335 207.472,198.781 208.051,198.619 208.772 C 198.489 209.352,198.070 210.697,197.689 211.760 C 197.307 212.824,196.872 214.731,196.723 215.999 C 196.573 217.267,196.181 219.150,195.853 220.183 C 195.375 221.686,195.345 222.307,195.701 223.293 C 196.819 226.384,195.880 228.902,193.610 228.902 C 190.845 228.902,190.392 223.562,193.082 222.666 C 193.491 222.529,193.490 221.858,193.075 218.959 C 192.663 216.085,192.482 215.535,192.116 216.037 C 191.867 216.376,191.329 216.590,190.919 216.513 C 189.927 216.324,189.707 214.429,190.567 213.479 C 192.274 211.592,193.101 200.499,191.715 198.073 C 191.047 196.905,190.962 191.361,191.573 188.825 C 192.450 185.187,191.484 181.376,190.049 182.811 C 189.636 183.224,189.449 183.994,189.499 185.071 C 189.789 191.310,189.676 192.626,188.669 194.755 C 188.119 195.918,187.669 196.976,187.669 197.107 C 187.669 197.238,187.292 198.159,186.833 199.154 C 186.199 200.524,185.913 202.178,185.654 205.964 C 185.369 210.140,185.120 211.442,184.144 213.864 C 183.163 216.296,183.012 217.091,183.207 218.796 C 183.445 220.887,182.958 222.429,181.553 224.029 C 181.073 224.575,180.956 225.350,181.055 227.305 C 181.306 232.244,181.274 232.963,180.716 234.831 C 179.861 237.696,177.264 238.867,177.264 236.388 C 177.264 235.829,177.006 234.376,176.691 233.160 C 176.128 230.987,176.138 230.894,177.269 227.795 C 178.904 223.315,178.742 221.552,176.648 221.027 C 175.350 220.701,172.640 222.376,172.640 223.503 C 172.640 223.919,172.033 224.811,171.291 225.486 C 169.797 226.845,169.734 227.232,170.370 231.110 C 170.982 234.842,170.200 236.709,168.097 236.535 C 166.036 236.364,165.106 233.906,166.409 232.077 C 166.868 231.431,167.245 230.542,167.245 230.102 C 167.245 229.663,167.490 228.649,167.790 227.850 C 168.089 227.051,168.428 225.010,168.542 223.314 C 168.656 221.618,169.018 219.472,169.346 218.545 C 169.674 217.618,169.942 215.655,169.942 214.184 C 169.942 211.941,170.160 211.040,171.291 208.591 C 173.035 204.816,172.945 203.424,170.848 201.734 C 169.939 201.001,169.763 199.229,170.600 199.229 C 172.279 199.229,173.158 196.478,172.860 192.154 C 172.645 189.028,172.726 187.740,173.272 185.635 C 173.870 183.331,173.887 182.862,173.412 181.776 C 173.077 181.011,172.790 178.483,172.659 175.145 L 172.447 169.750 170.809 169.631 L 169.171 169.513 169.171 175.676 L 169.171 181.839 170.424 181.995 L 171.676 182.150 170.410 182.212 L 169.143 182.274 169.253 190.735 L 169.364 199.197 168.401 199.310 C 166.904 199.484,166.719 202.936,168.187 203.305 C 169.688 203.681,169.707 207.707,168.208 207.707 L 167.245 207.707 167.245 211.946 L 167.245 216.185 166.089 216.185 L 164.933 216.185 164.933 220.424 L 164.933 224.663 163.969 224.663 L 163.006 224.663 163.006 230.996 L 163.006 237.328 161.946 237.450 L 160.886 237.572 160.783 246.146 L 160.679 254.721 159.723 254.721 C 158.960 254.721,158.767 254.915,158.767 255.684 C 158.767 256.595,158.651 256.647,156.647 256.647 C 154.549 256.647,154.528 256.659,154.528 257.803 L 154.528 258.960 150.096 258.960 L 145.665 258.960 145.665 257.803 C 145.665 256.673,145.622 256.647,143.738 256.647 L 141.811 256.647 141.811 258.767 L 141.811 260.886 136.416 260.886 L 131.021 260.886 131.021 259.923 C 131.021 258.971,130.983 258.960,127.746 258.960 C 124.509 258.960,124.470 258.971,124.470 259.923 L 124.470 260.886 119.268 260.886 L 114.066 260.886 114.066 262.042 L 114.066 263.198 108.671 263.198 L 103.276 263.198 103.276 264.162 C 103.276 265.073,103.160 265.125,101.156 265.125 C 99.058 265.125,99.037 265.137,99.037 266.281 C 99.037 267.426,99.015 267.437,96.917 267.437 C 94.913 267.437,94.798 267.490,94.798 268.401 C 94.798 269.264,94.641 269.364,93.288 269.364 C 91.188 269.364,90.559 269.685,90.559 270.754 C 90.559 271.522,90.365 271.676,89.403 271.676 C 88.426 271.676,88.247 271.826,88.247 272.640 C 88.247 273.410,88.054 273.603,87.283 273.603 C 86.474 273.603,86.320 273.784,86.320 274.739 C 86.320 275.838,86.253 275.879,84.297 275.991 C 82.552 276.092,82.257 276.224,82.154 276.952 C 82.069 277.542,81.723 277.831,80.997 277.915 C 80.190 278.008,79.935 278.269,79.840 279.094 C 79.744 279.927,79.516 280.154,78.780 280.154 C 78.042 280.154,77.842 280.355,77.842 281.097 C 77.842 281.964,77.677 282.050,75.819 282.157 C 73.932 282.266,73.788 282.345,73.674 283.333 C 73.572 284.221,73.368 284.393,72.421 284.393 C 71.472 284.393,71.291 284.548,71.291 285.356 C 71.291 286.127,71.098 286.320,70.328 286.320 C 69.514 286.320,69.364 286.500,69.364 287.476 C 69.364 288.504,69.236 288.632,68.208 288.632 C 67.238 288.632,67.052 288.784,67.052 289.575 C 67.052 290.441,66.887 290.528,65.029 290.635 C 63.142 290.744,62.998 290.823,62.884 291.811 C 62.788 292.644,62.561 292.871,61.824 292.871 L 60.886 292.871 60.886 301.323 L 60.886 309.775 59.827 309.897 C 58.994 309.993,58.741 310.247,58.645 311.079 C 58.549 311.911,58.322 312.139,57.585 312.139 C 56.842 312.139,56.647 312.338,56.647 313.102 C 56.647 314.013,56.532 314.066,54.528 314.066 L 52.408 314.066 52.408 316.185 C 52.408 318.283,52.397 318.304,51.252 318.304 L 50.096 318.304 50.096 321.580 C 50.096 324.817,50.085 324.855,49.133 324.855 C 48.224 324.855,48.170 324.973,48.170 326.949 C 48.170 328.947,48.121 329.049,47.110 329.165 L 46.050 329.287 45.943 334.393 L 45.835 339.499 47.002 339.499 L 48.170 339.499 48.170 342.775 C 48.170 346.012,48.181 346.050,49.133 346.050 C 49.904 346.050,50.096 346.243,50.096 347.013 C 50.096 347.827,50.276 347.977,51.252 347.977 C 52.397 347.977,52.408 347.998,52.408 350.096 C 52.408 352.100,52.461 352.216,53.372 352.216 C 54.185 352.216,54.335 352.396,54.335 353.372 C 54.335 354.516,54.357 354.528,56.455 354.528 C 58.459 354.528,58.574 354.580,58.574 355.491 C 58.574 356.300,58.756 356.455,59.705 356.455 C 60.651 356.455,60.855 356.627,60.957 357.514 C 61.071 358.503,61.215 358.582,63.102 358.691 C 64.960 358.798,65.125 358.884,65.125 359.750 C 65.125 360.500,65.323 360.694,66.089 360.694 C 66.902 360.694,67.052 360.873,67.052 361.850 C 67.052 362.877,67.180 363.006,68.208 363.006 C 69.236 363.006,69.364 363.134,69.364 364.162 C 69.364 365.306,69.386 365.318,71.484 365.318 C 73.487 365.318,73.603 365.370,73.603 366.281 C 73.603 367.228,73.656 367.245,76.660 367.245 C 79.709 367.245,79.718 367.248,79.840 368.304 C 79.953 369.293,80.098 369.372,81.985 369.481 C 83.842 369.588,84.008 369.674,84.008 370.540 C 84.008 371.425,84.137 371.484,86.102 371.484 C 88.099 371.484,88.201 371.532,88.317 372.543 C 88.433 373.547,88.557 373.609,90.655 373.719 C 92.718 373.826,92.871 373.899,92.871 374.778 L 92.871 375.723 99.229 375.723 L 105.588 375.723 105.588 376.679 C 105.588 377.377,105.847 377.700,106.551 377.876 C 108.182 378.286,109.441 377.764,109.441 376.679 L 109.441 375.723 123.314 375.723 L 137.187 375.723 137.187 374.767 L 137.187 373.812 144.605 373.708 L 152.023 373.603 152.145 372.543 L 152.267 371.484 157.444 371.484 L 162.620 371.484 162.620 370.530 L 162.620 369.575 169.075 369.470 L 175.530 369.364 175.652 368.304 L 175.774 367.245 179.987 367.245 L 184.200 367.245 184.200 366.281 C 184.200 365.339,184.264 365.318,187.100 365.318 L 190.000 365.318 190.231 364.162 C 190.454 363.049,190.541 363.006,192.534 363.006 C 194.578 363.006,194.605 362.991,194.605 361.850 C 194.605 360.705,194.626 360.694,196.724 360.694 C 198.728 360.694,198.844 360.641,198.844 359.730 C 198.844 358.819,198.960 358.767,200.963 358.767 C 203.061 358.767,203.083 358.755,203.083 357.611 C 203.083 356.583,203.211 356.455,204.239 356.455 C 205.215 356.455,205.395 356.305,205.395 355.491 C 205.395 354.721,205.588 354.528,206.358 354.528 C 207.172 354.528,207.322 354.348,207.322 353.372 C 207.322 352.344,207.450 352.216,208.478 352.216 C 209.454 352.216,209.634 352.066,209.634 351.252 C 209.634 350.482,209.827 350.289,210.597 350.289 C 211.508 350.289,211.561 350.173,211.561 348.170 C 211.561 346.072,211.572 346.050,212.717 346.050 C 213.744 346.050,213.873 345.922,213.873 344.894 C 213.873 343.918,214.023 343.738,214.836 343.738 C 215.607 343.738,215.800 343.545,215.800 342.775 C 215.800 341.961,215.979 341.811,216.956 341.811 C 217.983 341.811,218.112 341.683,218.112 340.655 C 218.112 339.679,218.262 339.499,219.075 339.499 C 219.846 339.499,220.039 339.306,220.039 338.536 C 220.039 337.672,220.195 337.572,221.548 337.572 C 223.648 337.572,224.277 337.252,224.277 336.182 C 224.277 335.415,224.471 335.260,225.434 335.260 C 226.578 335.260,226.590 335.239,226.590 333.141 C 226.590 331.043,226.601 331.021,227.746 331.021 C 228.722 331.021,228.902 330.871,228.902 330.058 C 228.902 329.287,229.094 329.094,229.865 329.094 C 230.817 329.094,230.829 329.054,230.829 325.844 L 230.829 322.595 231.888 322.473 C 232.938 322.352,232.949 322.322,233.060 319.171 C 233.169 316.082,233.198 315.992,234.120 315.992 C 234.867 315.992,235.067 315.794,235.067 315.054 C 235.067 314.318,235.295 314.091,236.127 313.995 C 236.960 313.899,237.213 313.645,237.309 312.813 C 237.405 311.981,237.632 311.753,238.369 311.753 C 239.112 311.753,239.306 311.554,239.306 310.790 C 239.306 309.973,239.485 309.827,240.483 309.827 L 241.659 309.827 241.542 307.803 C 241.434 305.916,241.355 305.772,240.366 305.658 C 239.534 305.563,239.306 305.335,239.306 304.599 C 239.306 303.855,239.107 303.661,238.343 303.661 C 237.422 303.661,237.380 303.558,237.380 301.349 C 237.380 299.139,237.422 299.037,238.343 299.037 L 239.306 299.037 239.306 294.798 L 239.306 290.559 238.343 290.559 C 237.572 290.559,237.380 290.366,237.380 289.595 L 237.380 288.632 230.829 288.632 L 224.277 288.632 224.277 286.513 C 224.277 284.509,224.225 284.393,223.314 284.393 C 222.403 284.393,222.351 284.277,222.351 282.274 C 222.351 280.176,222.339 280.154,221.195 280.154 L 220.039 280.154 220.039 277.842 L 220.039 275.530 221.195 275.530 L 222.351 275.530 222.351 271.291 L 222.351 267.052 223.314 267.052 L 224.277 267.052 224.277 263.006 L 224.277 258.960 223.314 258.960 C 222.362 258.960,222.351 258.921,222.351 255.684 L 222.351 252.408 221.195 252.408 C 220.050 252.408,220.039 252.387,220.039 250.289 C 220.039 248.285,219.986 248.170,219.075 248.170 C 218.164 248.170,218.112 248.054,218.112 246.050 C 218.112 243.952,218.100 243.931,216.956 243.931 C 215.928 243.931,215.800 243.802,215.800 242.775 C 215.800 241.798,215.650 241.618,214.836 241.618 C 213.925 241.618,213.873 241.503,213.873 239.499 C 213.873 237.401,213.861 237.380,212.717 237.380 C 211.572 237.380,211.561 237.358,211.561 235.260 C 211.561 233.256,211.508 233.141,210.597 233.141 C 209.827 233.141,209.634 232.948,209.634 232.177 C 209.634 231.364,209.454 231.214,208.478 231.214 C 207.419 231.214,207.327 231.109,207.380 229.961 C 207.433 228.796,207.448 228.782,207.598 229.769 C 207.748 230.760,207.881 230.829,209.660 230.829 L 211.561 230.829 211.561 228.902 C 211.561 227.103,211.496 226.975,210.597 226.975 C 209.677 226.975,209.634 226.872,209.634 224.663 C 209.634 222.453,209.677 222.351,210.597 222.351 C 211.508 222.351,211.561 222.235,211.561 220.231 C 211.561 218.133,211.572 218.112,212.717 218.112 C 213.861 218.112,213.873 218.090,213.873 215.992 C 213.873 213.988,213.925 213.873,214.836 213.873 L 215.800 213.873 215.800 207.540 L 215.800 201.207 216.859 201.085 L 217.919 200.963 218.020 186.224 L 218.121 171.484 219.080 171.484 L 220.039 171.484 220.039 167.245 L 220.039 163.006 221.195 163.006 L 222.351 163.006 222.351 158.767 L 222.351 154.528 221.195 154.528 C 219.525 154.528,219.437 152.336,221.098 152.145 L 222.158 152.023 222.266 146.917 L 222.373 141.811 221.206 141.811 C 220.166 141.811,220.039 141.685,220.039 140.655 C 220.039 139.627,220.167 139.499,221.195 139.499 L 222.351 139.499 222.351 136.441 L 222.351 133.382 221.098 133.227 L 219.846 133.071 221.098 133.010 L 222.351 132.948 222.351 119.268 L 222.351 105.588 221.195 105.588 C 220.167 105.588,220.039 105.459,220.039 104.432 C 220.039 103.404,220.167 103.276,221.195 103.276 L 222.351 103.276 222.351 98.073 L 222.351 92.871 221.195 92.871 L 220.039 92.871 220.100 86.224 C 220.134 82.567,220.232 80.140,220.317 80.829 C 220.445 81.856,220.641 82.081,221.412 82.081 C 222.156 82.081,222.351 82.280,222.351 83.044 C 222.351 83.858,222.531 84.008,223.507 84.008 C 224.534 84.008,224.663 84.136,224.663 85.164 C 224.663 86.140,224.813 86.320,225.626 86.320 C 226.315 86.320,226.590 86.528,226.590 87.049 C 226.590 88.025,227.310 88.247,230.475 88.247 L 233.141 88.247 233.141 89.403 C 233.141 90.370,233.293 90.559,234.077 90.559 C 234.755 90.559,235.048 90.798,235.137 91.426 C 235.244 92.181,235.521 92.308,237.283 92.409 C 239.240 92.522,239.306 92.563,239.306 93.662 C 239.306 94.667,239.439 94.798,240.462 94.798 C 241.439 94.798,241.618 94.948,241.618 95.761 C 241.618 96.670,241.736 96.724,243.712 96.724 C 245.710 96.724,245.812 96.773,245.928 97.784 C 246.042 98.773,246.186 98.852,248.073 98.960 C 249.931 99.067,250.096 99.154,250.096 100.020 C 250.096 100.905,250.226 100.963,252.190 100.963 C 254.188 100.963,254.290 101.012,254.406 102.023 C 254.502 102.855,254.755 103.109,255.588 103.205 C 256.420 103.301,256.647 103.528,256.647 104.265 C 256.647 105.144,256.778 105.202,258.767 105.202 C 260.865 105.202,260.886 105.214,260.886 106.358 L 260.886 107.514 263.944 107.514 C 266.992 107.514,267.001 107.517,267.123 108.574 C 267.219 109.407,267.472 109.660,268.304 109.756 C 269.137 109.852,269.364 110.079,269.364 110.816 C 269.364 111.695,269.495 111.753,271.484 111.753 C 273.582 111.753,273.603 111.765,273.603 112.909 L 273.603 114.066 277.842 114.066 L 282.081 114.066 282.081 115.029 C 282.081 115.793,282.275 115.992,283.019 115.992 C 283.755 115.992,283.983 116.220,284.078 117.052 C 284.173 117.878,284.429 118.138,285.236 118.231 C 285.962 118.315,286.308 118.604,286.392 119.195 C 286.503 119.974,286.755 120.047,289.692 120.150 C 292.741 120.258,292.871 120.299,292.871 121.169 C 292.871 122.463,293.336 122.543,300.802 122.543 L 307.514 122.543 307.514 123.507 C 307.514 124.459,307.553 124.470,310.790 124.470 L 314.066 124.470 314.066 125.626 C 314.066 126.771,314.087 126.782,316.185 126.782 C 318.189 126.782,318.304 126.835,318.304 127.746 C 318.304 128.516,318.497 128.709,319.268 128.709 C 319.939 128.709,320.231 128.920,320.231 129.403 C 320.231 130.516,321.038 131.021,322.813 131.021 C 324.324 131.021,324.470 131.106,324.470 131.985 C 324.470 132.798,324.650 132.948,325.626 132.948 C 326.654 132.948,326.782 133.076,326.782 134.104 C 326.782 135.080,326.932 135.260,327.746 135.260 C 328.516 135.260,328.709 135.453,328.709 136.224 C 328.709 137.032,328.891 137.187,329.840 137.187 C 330.786 137.187,330.990 137.359,331.092 138.247 C 331.179 139.005,331.460 139.341,332.081 139.429 C 332.859 139.540,332.948 139.769,332.948 141.645 C 332.948 143.714,332.961 143.738,334.104 143.738 C 335.080 143.738,335.260 143.888,335.260 144.701 C 335.260 145.612,335.376 145.665,337.380 145.665 C 339.478 145.665,339.499 145.676,339.499 146.821 C 339.499 147.848,339.627 147.977,340.655 147.977 C 341.683 147.977,341.811 148.105,341.811 149.133 C 341.811 150.109,341.961 150.289,342.775 150.289 C 343.685 150.289,343.738 150.405,343.738 152.408 C 343.738 154.507,343.750 154.528,344.894 154.528 L 346.050 154.528 346.050 168.401 L 346.050 182.274 344.894 182.274 L 343.738 182.274 343.738 185.356 C 343.738 188.388,343.722 188.439,342.775 188.439 C 341.823 188.439,341.811 188.478,341.811 191.715 L 341.811 194.990 340.655 194.990 C 339.679 194.990,339.499 195.140,339.499 195.954 C 339.499 196.713,339.304 196.917,338.577 196.917 C 337.507 196.917,337.187 197.546,337.187 199.646 C 337.187 201.000,337.087 201.156,336.224 201.156 C 335.271 201.156,335.260 201.195,335.260 204.432 L 335.260 207.707 334.104 207.707 C 333.076 207.707,332.948 207.836,332.948 208.863 C 332.948 209.839,332.798 210.019,331.985 210.019 C 331.214 210.019,331.021 210.212,331.021 210.983 C 331.021 211.796,330.841 211.946,329.865 211.946 C 328.838 211.946,328.709 212.075,328.709 213.102 C 328.709 214.078,328.559 214.258,327.746 214.258 C 326.975 214.258,326.782 214.451,326.782 215.222 C 326.782 216.035,326.602 216.185,325.626 216.185 C 324.599 216.185,324.470 216.313,324.470 217.341 C 324.470 218.317,324.320 218.497,323.507 218.497 C 322.736 218.497,322.543 218.690,322.543 219.461 C 322.543 220.371,322.428 220.424,320.424 220.424 L 318.304 220.424 318.304 223.699 L 318.304 226.975 316.185 226.975 C 314.181 226.975,314.066 227.028,314.066 227.938 C 314.066 228.814,313.916 228.902,312.428 228.908 C 309.832 228.917,309.757 229.053,309.896 233.470 L 310.019 237.381 308.767 237.380 C 307.688 237.380,307.514 237.246,307.514 236.416 L 307.514 235.453 303.276 235.453 L 299.037 235.453 299.037 236.416 C 299.037 237.327,298.921 237.380,296.917 237.380 L 294.798 237.380 294.798 239.499 C 294.798 241.503,294.745 241.618,293.834 241.618 C 293.021 241.618,292.871 241.798,292.871 242.775 C 292.871 243.881,292.796 243.933,291.137 243.979 C 290.183 244.005,289.194 244.049,288.940 244.075 C 288.219 244.150,288.092 246.914,288.778 247.600 C 289.099 247.921,289.501 248.160,289.671 248.131 C 291.555 247.811,292.871 248.223,292.871 249.133 C 292.871 250.080,292.922 250.096,295.954 250.096 C 298.968 250.096,299.037 250.075,299.037 249.153 C 299.037 248.287,299.202 248.200,301.060 248.093 C 302.947 247.985,303.091 247.906,303.205 246.917 C 303.301 246.085,303.528 245.857,304.265 245.857 C 305.008 245.857,305.202 245.658,305.202 244.894 C 305.202 244.130,305.397 243.931,306.143 243.931 C 306.660 243.931,307.196 243.749,307.333 243.527 C 307.504 243.251,307.757 243.267,308.130 243.577 C 308.456 243.847,309.301 243.948,310.216 243.825 C 311.709 243.625,311.753 243.652,311.753 244.758 L 311.753 245.898 314.836 245.823 L 317.919 245.749 317.913 244.165 C 317.904 241.828,317.689 241.673,314.543 241.746 L 311.753 241.811 311.753 240.319 C 311.753 239.069,311.843 238.901,312.305 239.284 C 313.396 240.190,315.784 239.632,315.922 238.439 C 316.038 237.428,316.140 237.380,318.137 237.380 L 320.231 237.380 320.231 235.260 C 320.231 233.256,320.284 233.141,321.195 233.141 C 322.019 233.141,322.158 232.965,322.158 231.920 C 322.158 231.249,322.267 230.809,322.401 230.943 C 322.534 231.076,322.625 232.579,322.603 234.283 C 322.564 237.309,322.585 237.380,323.491 237.380 C 324.217 237.380,324.446 237.610,324.541 238.439 C 324.663 239.497,324.669 239.499,327.746 239.499 C 330.822 239.499,330.829 239.497,330.950 238.439 C 331.046 237.607,331.274 237.380,332.010 237.380 C 332.795 237.380,332.948 237.191,332.948 236.224 C 332.948 235.196,333.076 235.067,334.104 235.067 C 335.080 235.067,335.260 234.918,335.260 234.104 C 335.260 233.333,335.453 233.141,336.224 233.141 C 337.037 233.141,337.187 232.961,337.187 231.985 C 337.187 230.957,337.315 230.829,338.343 230.829 C 339.319 230.829,339.499 230.679,339.499 229.865 C 339.499 228.918,339.550 228.902,342.582 228.902 L 345.665 228.902 345.665 227.746 C 345.665 226.601,345.686 226.590,347.784 226.590 L 349.904 226.590 349.965 222.254 C 349.999 219.870,350.097 218.490,350.184 219.187 L 350.340 220.455 353.301 220.343 C 356.213 220.233,356.264 220.214,356.384 219.171 C 356.500 218.160,356.602 218.112,358.600 218.112 L 360.694 218.112 360.694 215.992 C 360.694 213.988,360.746 213.873,361.657 213.873 C 362.428 213.873,362.620 213.680,362.620 212.909 C 362.620 212.096,362.800 211.946,363.776 211.946 C 364.804 211.946,364.933 211.818,364.933 210.790 C 364.933 209.814,365.082 209.634,365.896 209.634 C 366.667 209.634,366.859 209.441,366.859 208.671 C 366.859 207.857,367.039 207.707,368.015 207.707 C 369.043 207.707,369.171 207.579,369.171 206.551 C 369.171 205.575,369.321 205.395,370.135 205.395 C 371.046 205.395,371.098 205.279,371.098 203.276 L 371.098 201.156 373.410 201.156 L 375.723 201.156 375.723 195.761 L 375.723 190.366 376.686 190.366 C 377.597 190.366,377.649 190.250,377.649 188.247 C 377.649 186.149,377.661 186.127,378.805 186.127 C 379.782 186.127,379.961 185.977,379.961 185.164 C 379.961 184.393,380.154 184.200,380.925 184.200 C 381.877 184.200,381.888 184.162,381.888 180.925 L 381.888 177.649 383.044 177.649 C 384.175 177.649,384.200 177.607,384.200 175.723 C 384.200 173.839,384.175 173.796,383.044 173.796 L 381.888 173.796 381.888 160.886 L 381.888 147.977 380.938 147.977 C 379.993 147.977,379.987 147.951,379.878 143.834 L 379.769 139.692 378.709 139.570 C 377.698 139.453,377.649 139.352,377.649 137.354 C 377.649 135.377,377.595 135.260,376.686 135.260 C 375.739 135.260,375.723 135.209,375.723 132.177 L 375.723 129.094 374.566 129.094 C 373.539 129.094,373.410 128.966,373.410 127.938 C 373.410 126.911,373.282 126.782,372.254 126.782 C 371.110 126.782,371.098 126.761,371.098 124.663 L 371.098 122.543 368.979 122.543 C 366.881 122.543,366.859 122.532,366.859 121.387 C 366.859 120.411,366.709 120.231,365.896 120.231 C 365.125 120.231,364.933 120.039,364.933 119.268 C 364.933 118.357,364.817 118.304,362.813 118.304 C 360.715 118.304,360.694 118.293,360.694 117.148 C 360.694 116.121,360.565 115.992,359.538 115.992 C 358.393 115.992,358.382 115.971,358.382 113.873 C 358.382 111.881,358.325 111.753,357.438 111.753 C 356.572 111.753,356.485 111.588,356.379 109.730 C 356.270 107.843,356.191 107.699,355.202 107.585 C 354.370 107.489,354.143 107.262,354.143 106.525 C 354.143 105.646,354.012 105.588,352.023 105.588 C 349.925 105.588,349.904 105.576,349.904 104.432 C 349.904 103.455,349.754 103.276,348.940 103.276 C 348.076 103.276,347.977 103.120,347.977 101.762 C 347.977 99.914,347.095 98.894,345.725 99.156 C 344.330 99.423,343.738 99.088,343.738 98.032 C 343.738 97.115,343.713 97.110,339.499 97.110 L 335.260 97.110 335.260 94.990 C 335.260 92.892,335.248 92.871,334.104 92.871 C 333.076 92.871,332.948 92.742,332.948 91.715 L 332.948 90.559 329.865 90.559 C 326.834 90.559,326.782 90.543,326.782 89.595 C 326.782 88.782,326.602 88.632,325.626 88.632 C 324.599 88.632,324.470 88.504,324.470 87.476 C 324.470 86.332,324.449 86.320,322.351 86.320 C 320.347 86.320,320.231 86.267,320.231 85.356 L 320.231 84.393 315.992 84.393 L 311.753 84.393 311.753 83.237 C 311.753 82.093,311.732 82.081,309.634 82.081 C 307.630 82.081,307.514 82.028,307.514 81.118 C 307.514 80.165,307.476 80.154,304.239 80.154 L 300.963 80.154 300.963 78.998 L 300.963 77.842 296.724 77.842 L 292.486 77.842 292.486 76.686 C 292.486 75.542,292.464 75.530,290.366 75.530 C 288.362 75.530,288.247 75.477,288.247 74.566 C 288.247 73.620,288.194 73.603,285.189 73.603 C 282.141 73.603,282.132 73.600,282.010 72.543 C 281.914 71.711,281.661 71.457,280.829 71.362 C 279.996 71.266,279.769 71.039,279.769 70.302 C 279.769 69.382,279.706 69.364,276.493 69.364 L 273.218 69.364 273.218 68.208 C 273.218 67.064,273.196 67.052,271.098 67.052 C 269.094 67.052,268.979 66.999,268.979 66.089 C 268.979 65.318,268.786 65.125,268.015 65.125 C 267.256 65.125,267.052 64.930,267.052 64.203 C 267.052 63.029,266.450 62.813,263.167 62.813 C 260.580 62.813,260.501 62.784,260.501 61.850 C 260.501 61.086,260.307 60.886,259.563 60.886 C 258.827 60.886,258.599 60.659,258.503 59.827 C 258.390 58.838,258.245 58.759,256.358 58.650 C 254.501 58.543,254.335 58.457,254.335 57.591 C 254.335 56.799,254.149 56.647,253.179 56.647 C 252.152 56.647,252.023 56.519,252.023 55.491 C 252.023 54.515,251.873 54.335,251.060 54.335 C 250.289 54.335,250.096 54.143,250.096 53.372 C 250.096 52.462,249.979 52.408,248.002 52.408 C 246.005 52.408,245.903 52.360,245.787 51.349 C 245.691 50.516,245.437 50.263,244.605 50.167 C 243.773 50.071,243.545 49.844,243.545 49.107 C 243.545 48.364,243.346 48.170,242.582 48.170 C 241.768 48.170,241.618 47.990,241.618 47.013 C 241.618 45.986,241.490 45.857,240.462 45.857 C 239.486 45.857,239.306 45.708,239.306 44.894 C 239.306 43.947,239.255 43.931,236.224 43.931 L 233.141 43.931 233.141 42.775 C 233.141 41.747,233.012 41.618,231.985 41.618 C 231.008 41.618,230.829 41.469,230.829 40.655 C 230.829 39.884,230.636 39.692,229.865 39.692 C 229.052 39.692,228.902 39.512,228.902 38.536 C 228.902 37.513,228.771 37.380,227.766 37.380 C 226.667 37.380,226.626 37.313,226.513 35.356 L 226.397 33.333 224.374 33.217 C 222.417 33.104,222.351 33.063,222.351 31.964 C 222.351 30.959,222.218 30.829,221.195 30.829 C 220.218 30.829,220.039 30.679,220.039 29.865 C 220.039 29.101,219.844 28.902,219.101 28.902 C 218.364 28.902,218.137 28.674,218.041 27.842 C 217.927 26.854,217.783 26.774,215.896 26.666 L 213.873 26.549 213.873 24.688 C 213.873 22.647,213.515 22.367,210.886 22.356 C 209.809 22.351,209.634 22.216,209.634 21.387 C 209.634 20.574,209.454 20.424,208.478 20.424 C 207.450 20.424,207.322 20.295,207.322 19.268 C 207.322 18.292,207.172 18.112,206.358 18.112 C 205.588 18.112,205.395 17.919,205.395 17.148 C 205.395 16.239,205.278 16.185,203.301 16.185 C 201.303 16.185,201.202 16.136,201.085 15.125 C 200.972 14.137,200.827 14.058,198.940 13.949 C 197.082 13.842,196.917 13.755,196.917 12.889 C 196.917 12.098,196.731 11.946,195.761 11.946 C 194.733 11.946,194.605 11.818,194.605 10.790 C 194.605 9.828,194.451 9.634,193.683 9.634 C 193.022 9.634,192.694 9.362,192.520 8.671 C 192.303 7.806,192.083 7.707,190.384 7.707 C 188.605 7.707,188.483 7.643,188.369 6.647 C 188.273 5.815,188.019 5.562,187.187 5.466 C 186.355 5.370,186.127 5.143,186.127 4.406 C 186.127 3.538,185.985 3.468,184.200 3.468 C 182.328 3.468,182.274 3.500,182.274 4.594 M210.743 68.457 C 210.290 69.003,210.320 69.150,210.963 69.517 C 212.602 70.453,213.385 71.573,213.654 73.373 C 213.906 75.050,213.978 75.150,214.467 74.504 C 215.709 72.866,214.913 69.414,213.086 68.516 C 211.412 67.692,211.379 67.691,210.743 68.457 M207.601 79.094 C 207.515 79.783,207.445 79.220,207.445 77.842 C 207.445 76.464,207.515 75.901,207.601 76.590 C 207.686 77.278,207.686 78.406,207.601 79.094 M318.763 100.520 C 318.274 100.658,317.884 100.901,317.896 101.060 C 317.909 101.219,317.920 101.566,317.922 101.830 C 317.925 102.523,320.098 103.661,321.419 103.661 C 322.527 103.661,322.910 103.162,322.158 102.697 C 321.946 102.567,321.773 102.151,321.773 101.773 C 321.773 101.246,320.154 100.023,319.731 100.231 C 319.688 100.252,319.253 100.382,318.763 100.520 M336.724 112.216 C 337.084 112.575,337.290 112.575,337.649 112.216 C 338.009 111.856,337.906 111.753,337.187 111.753 C 336.468 111.753,336.365 111.856,336.724 112.216 M171.484 121.554 C 171.484 122.946,171.614 124.098,171.773 124.114 C 171.932 124.130,172.366 124.202,172.737 124.273 C 173.566 124.432,173.894 123.335,173.725 120.971 C 173.615 119.435,173.499 119.256,172.543 119.146 L 171.484 119.024 171.484 121.554 M171.965 125.145 C 171.588 125.270,171.484 129.913,171.484 146.634 L 171.484 167.963 172.293 168.220 C 173.924 168.738,173.949 168.463,174.112 147.878 C 174.291 125.417,174.195 124.401,171.965 125.145 M207.601 185.453 C 207.515 186.142,207.445 185.578,207.445 184.200 C 207.445 182.823,207.515 182.259,207.601 182.948 C 207.686 183.637,207.686 184.764,207.601 185.453 M196.355 191.209 C 196.228 192.123,196.280 193.391,196.472 194.027 L 196.820 195.183 197.254 194.098 C 197.855 192.595,197.797 190.551,197.137 190.003 C 196.678 189.622,196.548 189.823,196.355 191.209 M193.537 205.075 C 192.621 205.992,193.091 208.560,194.418 209.888 C 195.070 210.540,196.086 206.382,195.501 205.454 C 194.986 204.636,194.140 204.473,193.537 205.075 M205.389 213.873 C 207.146 213.873,207.281 213.803,207.431 212.813 C 207.581 211.827,207.596 211.840,207.649 213.006 L 207.707 214.258 205.588 214.258 C 203.584 214.258,203.468 214.311,203.468 215.222 C 203.468 216.035,203.288 216.185,202.312 216.185 C 201.168 216.185,201.156 216.164,201.156 214.066 C 201.156 211.967,201.376 211.676,202.794 211.900 C 202.953 211.926,203.116 211.382,203.156 210.694 C 203.196 210.005,203.291 210.438,203.368 211.657 L 203.507 213.873 205.389 213.873 M206.292 217.947 C 206.744 218.120,206.791 218.429,206.512 219.392 C 206.316 220.066,206.267 221.610,206.403 222.825 C 206.708 225.564,205.984 226.975,204.274 226.975 C 202.904 226.975,202.539 225.451,203.377 223.222 C 203.677 222.425,204.104 221.079,204.326 220.231 C 204.548 219.383,204.787 218.473,204.857 218.208 C 204.997 217.682,205.407 217.607,206.292 217.947 M201.156 219.268 C 201.156 220.239,201.005 220.424,200.208 220.424 C 199.282 220.424,199.256 220.505,199.131 223.796 C 199.013 226.900,198.996 226.808,198.923 222.640 L 198.844 218.112 200.000 218.112 C 201.028 218.112,201.156 218.240,201.156 219.268 M323.627 224.379 C 323.775 225.149,322.676 225.721,322.119 225.164 C 321.580 224.624,322.146 223.448,322.876 223.589 C 323.218 223.654,323.556 224.010,323.627 224.379 M187.508 224.663 C 188.286 224.663,188.439 224.853,188.439 225.819 L 188.439 226.975 186.224 226.917 C 185.005 226.885,184.485 226.787,185.067 226.699 C 185.996 226.558,186.131 226.362,186.158 225.119 C 186.174 224.338,186.275 223.916,186.382 224.181 C 186.489 224.446,186.996 224.663,187.508 224.663 M282.081 227.913 C 282.081 228.649,281.854 228.877,281.021 228.972 C 280.033 229.086,279.954 229.231,279.845 231.118 L 279.729 233.141 280.905 233.141 C 281.902 233.141,282.081 233.287,282.081 234.104 C 282.081 235.015,282.197 235.067,284.200 235.067 C 286.204 235.067,286.320 235.015,286.320 234.104 C 286.320 233.333,286.513 233.141,287.283 233.141 C 288.194 233.141,288.247 233.025,288.247 231.021 C 288.247 229.017,288.194 228.902,287.283 228.902 C 286.513 228.902,286.320 228.709,286.320 227.938 C 286.320 227.028,286.204 226.975,284.200 226.975 C 282.212 226.975,282.081 227.033,282.081 227.913 M203.854 230.631 C 203.854 230.921,204.345 231.561,204.945 232.053 C 205.545 232.545,206.610 233.988,207.311 235.260 C 208.012 236.532,208.995 237.954,209.495 238.421 C 209.995 238.888,210.405 239.545,210.405 239.881 C 210.405 240.941,211.861 243.402,213.279 244.740 C 214.030 245.448,214.644 246.353,214.644 246.751 C 214.644 247.149,215.158 247.956,215.787 248.543 C 216.545 249.252,217.017 250.152,217.187 251.217 C 217.344 252.198,217.723 252.971,218.163 253.207 C 218.743 253.517,218.882 254.041,218.882 255.909 C 218.882 258.392,219.683 260.501,220.626 260.501 C 221.380 260.501,221.437 265.209,220.693 265.965 C 219.944 266.724,218.991 269.335,218.673 271.498 C 218.273 274.223,216.139 278.501,213.843 281.181 C 212.157 283.148,211.725 287.753,213.093 289.160 C 213.777 289.863,213.812 289.853,214.497 288.775 C 214.883 288.166,215.670 287.062,216.246 286.320 C 216.822 285.578,217.409 284.494,217.551 283.911 C 217.846 282.704,218.392 282.535,218.799 283.526 C 219.353 284.877,221.343 288.079,222.235 289.053 C 223.142 290.045,223.605 293.703,222.956 294.754 C 222.454 295.566,224.398 296.264,226.610 296.064 C 228.669 295.878,228.779 295.811,229.513 294.288 C 231.248 290.688,236.657 292.263,235.375 295.995 C 234.902 297.373,233.622 297.961,230.962 298.022 C 225.411 298.148,227.169 302.229,233.656 304.271 C 235.561 304.870,236.017 305.198,236.636 306.412 L 237.367 307.844 235.485 309.317 C 234.450 310.127,233.092 311.070,232.468 311.412 C 231.116 312.153,229.673 314.928,229.671 316.788 C 229.670 317.516,229.323 318.680,228.900 319.373 C 228.407 320.182,228.121 321.358,228.102 322.649 C 228.064 325.255,227.484 326.759,225.815 328.581 C 225.071 329.393,223.868 330.817,223.143 331.744 C 222.418 332.671,221.322 333.641,220.709 333.899 C 219.380 334.458,215.148 338.518,214.821 339.547 C 214.695 339.944,214.444 340.270,214.263 340.270 C 213.777 340.270,208.454 345.219,207.234 346.804 C 206.656 347.555,205.951 348.430,205.666 348.748 C 205.382 349.066,204.859 350.106,204.505 351.060 C 203.692 353.246,201.896 354.696,199.094 355.428 C 197.901 355.739,196.390 356.445,195.736 356.995 C 195.081 357.546,194.243 357.996,193.872 357.996 C 193.501 357.996,192.807 358.413,192.328 358.922 C 191.850 359.431,190.717 360.034,189.810 360.263 C 188.903 360.491,187.947 360.937,187.684 361.253 C 187.421 361.570,186.573 361.942,185.799 362.080 C 185.026 362.218,184.046 362.639,183.622 363.016 C 182.503 364.013,180.174 364.536,178.004 364.279 C 176.356 364.084,175.910 364.194,174.559 365.131 C 172.111 366.827,169.969 367.218,165.644 366.757 C 162.152 366.385,161.850 366.411,160.603 367.182 C 159.634 367.781,158.352 368.068,155.843 368.250 C 153.676 368.407,151.911 368.761,151.060 369.208 C 148.787 370.403,144.049 371.171,141.912 370.691 C 139.593 370.171,137.851 370.492,136.576 371.673 C 135.060 373.078,131.901 373.604,128.488 373.020 C 126.282 372.643,124.656 372.645,120.564 373.028 C 117.731 373.294,114.114 373.543,112.524 373.582 C 110.796 373.624,109.285 373.874,108.766 374.203 C 108.065 374.647,107.767 374.661,107.224 374.274 C 105.781 373.245,104.476 372.915,100.578 372.593 C 98.353 372.409,95.922 372.015,95.176 371.717 C 94.431 371.420,92.846 371.054,91.655 370.906 C 89.897 370.686,89.340 370.431,88.689 369.551 C 88.234 368.936,87.341 368.348,86.622 368.191 C 85.926 368.039,84.949 367.595,84.450 367.205 C 83.952 366.814,82.951 366.383,82.225 366.247 C 81.500 366.111,80.693 365.696,80.434 365.325 C 80.174 364.954,79.355 364.533,78.613 364.390 C 77.871 364.246,76.310 363.721,75.145 363.223 C 73.979 362.725,72.545 362.127,71.958 361.895 C 71.370 361.664,70.711 361.004,70.493 360.430 C 69.410 357.580,64.260 353.893,63.372 355.330 C 63.214 355.585,62.720 355.284,62.097 354.553 C 61.537 353.896,59.952 352.792,58.574 352.098 C 56.208 350.907,56.016 350.706,55.106 348.484 C 54.576 347.190,53.510 345.438,52.737 344.592 C 51.964 343.745,51.208 342.643,51.056 342.143 C 50.905 341.642,50.566 340.713,50.303 340.077 C 48.773 336.374,48.840 332.556,50.478 330.256 C 50.904 329.658,51.252 329.004,51.252 328.804 C 51.252 328.604,51.769 327.677,52.401 326.744 C 53.340 325.359,53.552 324.646,53.558 322.855 C 53.565 320.463,56.267 315.926,57.996 315.403 C 60.187 314.740,60.977 314.235,61.527 313.144 C 61.859 312.485,62.524 311.513,63.005 310.983 C 64.214 309.651,64.374 308.089,63.878 302.448 C 63.283 295.680,64.849 292.486,68.763 292.486 C 68.884 292.486,70.479 291.003,72.308 289.190 C 74.313 287.203,76.052 285.811,76.688 285.684 C 77.268 285.568,78.565 284.684,79.571 283.721 C 81.687 281.693,84.305 279.868,86.900 278.611 C 87.949 278.104,89.026 277.218,89.432 276.529 C 89.821 275.870,90.711 274.994,91.409 274.582 C 92.107 274.170,92.938 273.539,93.256 273.181 C 93.574 272.823,94.672 272.222,95.695 271.846 C 96.719 271.470,98.193 270.707,98.971 270.151 C 100.331 269.177,102.934 267.823,103.446 267.823 C 103.581 267.823,104.220 267.433,104.865 266.956 C 105.900 266.191,106.499 266.089,109.923 266.089 C 112.423 266.089,113.859 265.936,113.951 265.662 C 114.539 263.898,114.955 263.776,120.373 263.776 C 124.029 263.776,125.730 263.633,126.068 263.295 C 126.707 262.657,127.926 262.686,129.582 263.378 C 130.627 263.815,131.431 263.862,133.126 263.586 C 134.332 263.390,135.782 263.300,136.349 263.385 C 136.916 263.471,138.714 263.747,140.344 263.999 C 143.156 264.433,143.385 264.412,144.770 263.595 C 145.782 262.997,147.531 262.565,150.475 262.185 C 153.596 261.782,155.023 261.416,155.861 260.805 C 156.569 260.289,157.779 259.908,159.049 259.803 C 160.810 259.657,161.214 259.465,161.946 258.429 C 163.247 256.587,164.180 255.955,166.276 255.496 C 167.399 255.250,168.645 254.647,169.271 254.048 C 170.010 253.340,170.910 252.955,172.166 252.811 C 173.954 252.605,173.993 252.572,174.206 251.060 C 174.326 250.212,174.864 248.881,175.402 248.103 C 175.940 247.324,176.493 245.862,176.632 244.855 C 176.770 243.847,177.376 242.143,177.979 241.068 C 178.581 239.993,178.995 238.883,178.898 238.602 C 178.760 238.203,179.098 238.147,180.428 238.346 C 182.077 238.594,184.337 237.451,184.925 236.073 C 185.006 235.884,185.631 235.103,186.315 234.338 C 186.998 233.574,187.773 232.537,188.036 232.035 C 189.084 230.039,194.647 232.128,196.155 235.084 C 197.768 238.245,201.598 236.963,202.122 233.086 C 202.507 230.236,203.854 228.327,203.854 230.631 M174.113 238.518 C 174.256 239.979,173.821 240.596,172.897 240.241 C 172.164 239.960,172.062 238.845,172.666 237.716 C 173.249 236.626,173.967 237.023,174.113 238.518 M169.538 238.902 C 170.775 240.139,170.470 246.358,169.099 247.854 C 167.497 249.603,165.099 249.432,164.296 247.511 C 162.193 242.477,166.326 235.690,169.538 238.902 M303.661 239.871 C 303.661 240.182,303.141 241.028,302.505 241.752 C 301.869 242.476,301.349 243.263,301.349 243.500 C 301.349 243.737,300.785 243.925,300.096 243.919 C 299.059 243.909,298.960 243.840,299.518 243.514 C 299.889 243.298,300.193 242.827,300.193 242.466 C 300.193 241.858,302.724 239.353,303.372 239.321 C 303.531 239.313,303.661 239.560,303.661 239.871 M171.796 251.105 C 171.223 251.678,171.137 251.659,170.711 250.863 C 170.117 249.753,170.979 249.041,171.855 249.918 C 172.351 250.413,172.344 250.558,171.796 251.105 M273.603 252.408 L 273.603 254.335 276.686 254.335 L 279.769 254.335 279.769 252.408 L 279.769 250.482 276.686 250.482 L 273.603 250.482 273.603 252.408 M299.082 250.771 C 299.262 251.909,298.954 252.408,298.073 252.408 C 297.265 252.408,297.110 252.590,297.110 253.539 C 297.110 254.486,296.938 254.689,296.050 254.791 C 295.069 254.904,294.990 255.042,294.990 256.647 L 294.990 258.382 299.133 258.491 L 303.276 258.600 303.276 257.624 C 303.276 256.839,303.465 256.647,304.239 256.647 C 305.809 256.647,305.717 252.519,304.143 252.338 C 303.472 252.261,303.126 252.016,303.200 251.673 C 303.264 251.375,303.090 250.987,302.814 250.812 C 302.186 250.414,299.020 250.379,299.082 250.771 M288.247 260.886 L 288.247 262.813 292.486 262.813 L 296.724 262.813 296.724 260.886 L 296.724 258.960 292.486 258.960 L 288.247 258.960 288.247 260.886 M286.577 263.455 C 286.435 263.597,286.320 264.019,286.320 264.393 C 286.320 264.849,285.970 265.114,285.260 265.196 C 284.428 265.292,284.174 265.545,284.078 266.378 C 283.983 267.210,283.755 267.437,283.019 267.437 C 282.085 267.437,282.081 267.454,282.081 271.484 L 282.081 275.530 285.164 275.530 C 288.195 275.530,288.247 275.514,288.247 274.566 C 288.247 273.753,288.426 273.603,289.403 273.603 C 290.547 273.603,290.559 273.582,290.559 271.484 C 290.559 269.480,290.611 269.364,291.522 269.364 C 292.469 269.364,292.486 269.313,292.486 266.281 L 292.486 263.198 289.660 263.198 C 288.105 263.198,286.718 263.314,286.577 263.455 M286.705 270.520 C 286.705 271.156,286.532 271.676,286.320 271.676 C 286.108 271.676,285.934 271.156,285.934 270.520 C 285.934 269.884,286.108 269.364,286.320 269.364 C 286.532 269.364,286.705 269.884,286.705 270.520 " stroke="none" fill="#d5d4d0" fill-rule="evenodd"></path></g></svg>